<svg id="Capa_1" data-name="Capa 1" xmlns="http://www.w3.org/2000/svg" xmlns:xlink="http://www.w3.org/1999/xlink" viewBox="0 0 2889 754.52"><defs><style>.cls-1{fill:#f2f2f2;}.cls-2{fill:#e8dbd1;}.cls-3{fill:url(#Degradado_sin_nombre);}</style><linearGradient id="Degradado_sin_nombre" y1="-336.16" x2="2888.9" y2="-336.16" gradientTransform="matrix(1, 0, 0, -1, 0, -12.11)" gradientUnits="userSpaceOnUse"><stop offset="0" stop-color="#95591e"/><stop offset="1" stop-color="#f0c982"/></linearGradient></defs><title>FLORES_curvas</title><path class="cls-1" d="M688.3,739.1C403.5,745.8,176.4,704.2,0,645.3V764.6H2889V384c-218.6-63-390.8-69.2-390.8-69.2C1627.5,285,1579.3,718.1,688.3,739.1Z" transform="translate(0 -10.08)"/><path class="cls-2" d="M2486,10.7C1615.9,54.8,1604.6,490.4,718.6,586.9,422.3,619.2,184.4,593.3,0,545.6V647.3c176.4,58.9,403.5,100.5,688.3,93.8,891-21,939.2-454.1,1809.9-424.3,0,0,172.2,6.2,390.8,69.2V48.1C2662.1,2.2,2486,10.7,2486,10.7Z" transform="translate(0 -10.08)"/><path class="cls-3" d="M2486,10.7C1615.9,54.8,1604.6,490.4,718.6,586.9,422.3,619.2,184.4,593.3,0,545.6v15.2c179.6,54.3,410.7,89.7,699.7,73.1,889.8-51.2,923.3-485.6,1794.5-485.2,0,0,173.2.4,394.7,56.4V48.1C2662.1,2.2,2486,10.7,2486,10.7Z" transform="translate(0 -10.08)"/></svg>