<?xml version="1.0" encoding="utf-8"?>
<!-- Generator: Adobe Illustrator 24.0.1, SVG Export Plug-In . SVG Version: 6.00 Build 0)  -->
<svg version="1.1" id="Capa_1" xmlns="http://www.w3.org/2000/svg" xmlns:xlink="http://www.w3.org/1999/xlink" x="0px" y="0px"
	 viewBox="0 0 2889 771.9" style="enable-background:new 0 0 2889 771.9;" xml:space="preserve">
<style type="text/css">
	.st0{fill:#F2F2F2;}
	.st1{fill:#E5E5E5;}
	.st2{fill:#97D3D3;}
</style>
<g>
	<path class="st0" d="M688.3,742.4C403.5,749.1,176.4,707.5,0,648.6v123.3h2889V387.3c-218.6-63-390.8-69.2-390.8-69.2
		C1627.5,288.3,1579.3,721.4,688.3,742.4z"/>
</g>
<path class="st1" d="M2486,18c-870.1,44.1-881.4,479.7-1767.4,576.2C422.3,626.5,184.4,600.6,0,552.9v101.7
	c176.4,58.9,403.5,100.5,688.3,93.8c891-21,939.2-454.1,1809.9-424.3c0,0,172.2,6.2,390.8,69.2V55.4C2662.1,9.5,2486,18,2486,18z"/>
<path class="st2" d="M2486.1,16C1616,60.1,1604.7,495.7,718.6,592.2C422.3,624.5,184.4,598.6,0,550.9v15.2
	c179.6,54.3,410.7,89.7,699.7,73.1C1589.6,588,1623.1,153.6,2494.3,154c0,0,173.2,0.4,394.7,56.4v-157
	C2662.2,7.5,2486.1,16,2486.1,16z"/>
</svg>
