<?xml version="1.0" encoding="utf-8"?>
<!-- Generator: Adobe Illustrator 26.0.1, SVG Export Plug-In . SVG Version: 6.00 Build 0)  -->
<svg version="1.1" id="Capa_1" xmlns="http://www.w3.org/2000/svg" xmlns:xlink="http://www.w3.org/1999/xlink" x="0px" y="0px"
	 viewBox="0 0 2889 768.7" style="enable-background:new 0 0 2889 768.7;" xml:space="preserve">
<style type="text/css">
	.st0{fill:#F2F2F2;}
	.st1{fill:#C6C6C5;}
	.st2{fill:#B97600;}
	.st3{fill:#F2F2F2;}
</style>
<path class="st0" d="M688.3,743.2C403.5,749.9,176.4,708.3,0,649.4v119.3h2889V388.1c-218.6-63-390.8-69.2-390.8-69.2
	C1627.5,289.1,1579.3,722.2,688.3,743.2z"/>
<path class="st1" d="M2486,15.8C1615.9,59.9,1604.6,495.5,718.6,592C422.3,624.3,184.4,598.4,0,550.7v101.7
	c176.4,58.9,403.5,100.5,688.3,93.8c891-21,939.2-454.1,1809.9-424.3c0,0,172.2,6.2,390.8,69.2V53.2C2662.1,7.3,2486,15.8,2486,15.8
	z"/>
<path class="st2" d="M2486,15.8C1615.9,59.9,1604.6,495.5,718.6,592C422.3,624.3,184.4,598.4,0,550.7v15.2
	c179.6,54.3,410.7,89.7,699.7,73.1c889.8-51.2,923.3-485.6,1794.5-485.2c0,0,173.2,0.4,394.7,56.4v-157
	C2662.1,7.3,2486,15.8,2486,15.8z"/>
<path class="st3" d="M0,0v550.7c184.4,47.7,422.3,73.6,718.6,41.3C1604.6,495.5,1616,59.9,2486,15.8c0,0,176.1-8.6,403,37.4V0H0z"/>
</svg>
