<svg id="Capa_1" data-name="Capa 1" xmlns="http://www.w3.org/2000/svg" viewBox="0 0 2889 768.71"><defs><style>.cls-1{fill:#f2f2f2;}.cls-2{fill:#fff;}.cls-3{fill:#b97600;}.cls-4{fill:#333;}</style></defs><title>MINIMALISTA_curvas</title><path class="cls-1" d="M688.3,743.43c-284.8,6.7-511.9-34.9-688.3-93.8v119.3H2889V388.33c-218.6-63-390.8-69.2-390.8-69.2C1627.5,289.33,1579.3,722.43,688.3,743.43Z" transform="translate(0 -0.22)"/><path class="cls-2" d="M2486,16c-870.1,44.1-881.4,479.7-1767.4,576.2-296.3,32.3-534.2,6.4-718.6-41.3v101.7c176.4,58.9,403.5,100.5,688.3,93.8,891-21,939.2-454.1,1809.9-424.3,0,0,172.2,6.2,390.8,69.2V53.43C2662.1,7.53,2486,16,2486,16Z" transform="translate(0 -0.22)"/><path class="cls-3" d="M2486,16c-870.1,44.1-881.4,479.7-1767.4,576.2-296.3,32.3-534.2,6.4-718.6-41.3v15.2c179.6,54.3,410.7,89.7,699.7,73.1C1589.5,588,1623,153.63,2494.2,154c0,0,173.2.4,394.7,56.4v-157C2662.1,7.53,2486,16,2486,16Z" transform="translate(0 -0.22)"/><path class="cls-4" d="M0,.22V550.93c184.4,47.7,422.3,73.6,718.6,41.3C1604.6,495.73,1616,60.13,2486,16c0,0,176.1-8.6,403,37.4V.22Z" transform="translate(0 -0.22)"/></svg>