<?xml version="1.0" encoding="utf-8"?>
<!-- Generator: Adobe Illustrator 24.0.1, SVG Export Plug-In . SVG Version: 6.00 Build 0)  -->
<svg version="1.1" id="Capa_1" xmlns="http://www.w3.org/2000/svg" xmlns:xlink="http://www.w3.org/1999/xlink" x="0px" y="0px"
	 viewBox="0 0 343 343" style="enable-background:new 0 0 343 343;" xml:space="preserve">
<style type="text/css">
	.st0{opacity:0.3;}
	.st1{fill:#FFD54F;}
</style>
<g class="st0">
	<g>
		<circle class="st1" cx="11.9" cy="11.9" r="11.9"/>
		<circle class="st1" cx="57.5" cy="11.9" r="11.9"/>
		<circle class="st1" cx="103.1" cy="11.9" r="11.9"/>
		<circle class="st1" cx="148.7" cy="11.9" r="11.9"/>
		<circle class="st1" cx="194.3" cy="11.9" r="11.9"/>
		<circle class="st1" cx="239.9" cy="11.9" r="11.9"/>
		<circle class="st1" cx="285.5" cy="11.9" r="11.9"/>
		<circle class="st1" cx="331.1" cy="11.9" r="11.9"/>
		<circle class="st1" cx="11.9" cy="57.5" r="11.9"/>
		<circle class="st1" cx="57.5" cy="57.5" r="11.9"/>
		<circle class="st1" cx="103.1" cy="57.5" r="11.9"/>
		<circle class="st1" cx="148.7" cy="57.5" r="11.9"/>
		<circle class="st1" cx="194.3" cy="57.5" r="11.9"/>
		<circle class="st1" cx="239.9" cy="57.5" r="11.9"/>
		<circle class="st1" cx="285.5" cy="57.5" r="11.9"/>
		<circle class="st1" cx="331.1" cy="57.5" r="11.9"/>
		<circle class="st1" cx="11.9" cy="103.1" r="11.9"/>
		<circle class="st1" cx="57.5" cy="103.1" r="11.9"/>
		<circle class="st1" cx="103.1" cy="103.1" r="11.9"/>
		<circle class="st1" cx="148.7" cy="103.1" r="11.9"/>
		<circle class="st1" cx="194.3" cy="103.1" r="11.9"/>
		<circle class="st1" cx="239.9" cy="103.1" r="11.9"/>
		<circle class="st1" cx="285.5" cy="103.1" r="11.9"/>
		<circle class="st1" cx="331.1" cy="103.1" r="11.9"/>
		<circle class="st1" cx="11.9" cy="148.7" r="11.9"/>
		<circle class="st1" cx="57.5" cy="148.7" r="11.9"/>
		<circle class="st1" cx="103.1" cy="148.7" r="11.9"/>
		<circle class="st1" cx="148.7" cy="148.7" r="11.9"/>
		<circle class="st1" cx="194.3" cy="148.7" r="11.9"/>
		<circle class="st1" cx="239.9" cy="148.7" r="11.9"/>
		<circle class="st1" cx="285.5" cy="148.7" r="11.9"/>
		<circle class="st1" cx="331.1" cy="148.7" r="11.9"/>
		<circle class="st1" cx="11.9" cy="194.3" r="11.9"/>
		<circle class="st1" cx="57.5" cy="194.3" r="11.9"/>
		<circle class="st1" cx="103.1" cy="194.3" r="11.9"/>
		<circle class="st1" cx="148.7" cy="194.3" r="11.9"/>
		<circle class="st1" cx="194.3" cy="194.3" r="11.9"/>
		<circle class="st1" cx="239.9" cy="194.3" r="11.9"/>
		<circle class="st1" cx="285.5" cy="194.3" r="11.9"/>
		<circle class="st1" cx="331.1" cy="194.3" r="11.9"/>
		<circle class="st1" cx="11.9" cy="239.9" r="11.9"/>
		<circle class="st1" cx="57.5" cy="239.9" r="11.9"/>
		<circle class="st1" cx="103.1" cy="239.9" r="11.9"/>
		<circle class="st1" cx="148.7" cy="239.9" r="11.9"/>
		<circle class="st1" cx="194.3" cy="239.9" r="11.9"/>
		<circle class="st1" cx="239.9" cy="239.9" r="11.9"/>
		<circle class="st1" cx="285.5" cy="239.9" r="11.9"/>
		<circle class="st1" cx="331.1" cy="239.9" r="11.9"/>
		<circle class="st1" cx="11.9" cy="285.5" r="11.9"/>
		<circle class="st1" cx="57.5" cy="285.5" r="11.9"/>
		<circle class="st1" cx="103.1" cy="285.5" r="11.9"/>
		<circle class="st1" cx="148.7" cy="285.5" r="11.9"/>
		<circle class="st1" cx="194.3" cy="285.5" r="11.9"/>
		<circle class="st1" cx="239.9" cy="285.5" r="11.9"/>
		<circle class="st1" cx="285.5" cy="285.5" r="11.9"/>
		<circle class="st1" cx="331.1" cy="285.5" r="11.9"/>
		<circle class="st1" cx="11.9" cy="331.1" r="11.9"/>
		<circle class="st1" cx="57.5" cy="331.1" r="11.9"/>
		<circle class="st1" cx="103.1" cy="331.1" r="11.9"/>
		<circle class="st1" cx="148.7" cy="331.1" r="11.9"/>
		<circle class="st1" cx="194.3" cy="331.1" r="11.9"/>
		<circle class="st1" cx="239.9" cy="331.1" r="11.9"/>
		<circle class="st1" cx="285.5" cy="331.1" r="11.9"/>
		<circle class="st1" cx="331.1" cy="331.1" r="11.9"/>
	</g>
</g>
</svg>
