<?xml version="1.0" encoding="utf-8"?>
<!-- Generator: Adobe Illustrator 24.0.1, SVG Export Plug-In . SVG Version: 6.00 Build 0)  -->
<svg version="1.1" id="Capa_1" xmlns="http://www.w3.org/2000/svg" xmlns:xlink="http://www.w3.org/1999/xlink" x="0px" y="0px"
	 viewBox="0 0 2889 742.4" style="enable-background:new 0 0 2889 742.4;" xml:space="preserve">
<style type="text/css">
	.st0{fill:#63D6C3;}
	.st1{fill:#F2F2F2;}
	.st2{fill:#FFD54F;}
</style>
<path class="st0" d="M2486,0.6C1616,44.7,1604.6,480.3,718.6,576.8C422.3,609.1,184.4,583.2,0,535.5v101.7
	c176.4,58.9,403.5,100.5,688.3,93.8c891-21,939.2-454.1,1809.9-424.3c0,0,172.2,6.2,390.8,69.2V38C2662.1-7.9,2486,0.6,2486,0.6z"/>
<g>
	<path class="st1" d="M688.3,730.9C403.5,737.7,176.4,696,0,637.1v105.2h2889V375.9c-218.6-62.9-390.8-69.2-390.8-69.2
		C1627.6,276.8,1579.4,709.9,688.3,730.9z"/>
</g>
<path class="st2" d="M2486,0.6C1616,44.7,1604.6,480.3,718.6,576.8C422.3,609.1,184.4,583.2,0,535.5v15.2
	c179.6,54.3,410.7,89.7,699.7,73.1c889.8-51.2,923.3-485.6,1794.5-485.2c0,0,173.2,0.4,394.7,56.4V38C2662.1-7.9,2486,0.6,2486,0.6z
	"/>
</svg>
