<?xml version="1.0" encoding="utf-8"?>
<!-- Generator: Adobe Illustrator 24.0.1, SVG Export Plug-In . SVG Version: 6.00 Build 0)  -->
<svg version="1.1" id="Capa_1" xmlns="http://www.w3.org/2000/svg" xmlns:xlink="http://www.w3.org/1999/xlink" x="0px" y="0px"
	 viewBox="0 0 42.2 114.8" style="enable-background:new 0 0 42.2 114.8;" xml:space="preserve">
<style type="text/css">
	.st0{fill:#999999;}
</style>
<g>
	<g>
		<g>
			<path class="st0" d="M36.2,1.9c3.6,15.2,3.9,31.2,1.2,46.6C34.7,63.5,29.3,78.1,20.9,91c-4.5,7-9.9,13.3-16.1,18.9
				c-1.4,1.3,0.7,3.4,2.1,2.1C18.4,101.7,27,88.7,32.9,74.6C39,59.9,42.1,44,42.2,28.1c0-9.1-1-18.2-3.1-27
				C38.6-0.8,35.7,0,36.2,1.9L36.2,1.9z"/>
		</g>
	</g>
	<g>
		<g>
			<path class="st0" d="M14.5,92.4c-3.4,7.4-8.1,14.2-14.1,19.8c-1.2,1.1,0.4,3.3,1.8,2.4c7.4-5.1,16-8.4,25-9.2
				c1.9-0.2,1.9-3.2,0-3c-9.5,0.9-18.6,4.2-26.5,9.6c0.6,0.8,1.2,1.6,1.8,2.4c6.1-5.8,11-12.8,14.6-20.4
				C17.9,92.2,15.3,90.7,14.5,92.4L14.5,92.4z"/>
		</g>
	</g>
</g>
</svg>
