<?xml version="1.0" encoding="utf-8"?>
<!-- Generator: Adobe Illustrator 24.0.1, SVG Export Plug-In . SVG Version: 6.00 Build 0)  -->
<svg version="1.1" id="Capa_1" xmlns="http://www.w3.org/2000/svg" xmlns:xlink="http://www.w3.org/1999/xlink" x="0px" y="0px"
	 viewBox="0 0 15.8 27.9" style="enable-background:new 0 0 15.8 27.9;" xml:space="preserve">
<style type="text/css">
	.st0{fill:#FFFFFF;}
</style>
<g>
	<g>
		<g>
			<g>
				<path class="st0" d="M7.9,27.9c-0.3,0-0.6-0.1-0.8-0.3l-6.8-6.8c-0.4-0.4-0.4-1.1,0-1.6c0.4-0.4,1.1-0.4,1.6,0l6,6l6-6
					c0.4-0.4,1.1-0.4,1.6,0c0.4,0.4,0.4,1.1,0,1.6l-6.8,6.8C8.5,27.8,8.2,27.9,7.9,27.9z"/>
			</g>
		</g>
		<g>
			<g>
				<path class="st0" d="M7.9,18.4c-0.3,0-0.6-0.1-0.8-0.3l-6.8-6.8c-0.4-0.4-0.4-1.1,0-1.6c0.4-0.4,1.1-0.4,1.6,0l6,6l6-6
					c0.4-0.4,1.1-0.4,1.6,0c0.4,0.4,0.4,1.1,0,1.6l-6.8,6.8C8.5,18.3,8.2,18.4,7.9,18.4z"/>
			</g>
		</g>
		<g>
			<g>
				<path class="st0" d="M7.9,9C7.6,9,7.3,8.9,7.1,8.7L0.3,1.9c-0.4-0.4-0.4-1.1,0-1.6c0.4-0.4,1.1-0.4,1.6,0l6,6l6-6
					c0.4-0.4,1.1-0.4,1.6,0c0.4,0.4,0.4,1.1,0,1.6L8.7,8.7C8.5,8.9,8.2,9,7.9,9z"/>
			</g>
		</g>
	</g>
</g>
</svg>
