<?xml version="1.0" encoding="utf-8"?>
<!-- Generator: Adobe Illustrator 24.0.1, SVG Export Plug-In . SVG Version: 6.00 Build 0)  -->
<svg version="1.1" id="Capa_1" xmlns="http://www.w3.org/2000/svg" xmlns:xlink="http://www.w3.org/1999/xlink" x="0px" y="0px"
	 viewBox="0 0 42.3 115" style="enable-background:new 0 0 42.3 115;" xml:space="preserve">
<style type="text/css">
	.st0{fill:#FFFFFF;}
</style>
<g>
	<g>
		<g>
			<path class="st0" d="M3.1,1.1c-3.7,15.7-4,32-1.3,47.8c2.7,15.4,8.3,30.5,16.8,43.6c4.7,7.2,10.2,13.8,16.6,19.5
				c1.5,1.3,3.7-0.9,2.2-2.2c-11.1-9.9-19.6-22.6-25.3-36.3c-5.9-14.3-9-29.8-9.1-45.4c0-8.8,1-17.6,3-26.2C6.6,0,3.6-0.8,3.1,1.1
				L3.1,1.1z"/>
		</g>
	</g>
	<g>
		<g>
			<path class="st0" d="M25.1,94.1c3.5,7.6,8.5,14.6,14.6,20.4c0.6-0.8,1.3-1.7,1.9-2.5c-7.9-5.4-17-8.8-26.6-9.6c-2-0.2-2,3,0,3.2
				c9,0.8,17.6,4.1,25,9.2c1.5,1,3.2-1.3,1.9-2.5c-5.9-5.6-10.6-12.4-14.1-19.8C26.9,90.6,24.2,92.2,25.1,94.1L25.1,94.1z"/>
		</g>
	</g>
</g>
</svg>
