<?xml version="1.0" encoding="utf-8"?>
<!-- Generator: Adobe Illustrator 24.0.1, SVG Export Plug-In . SVG Version: 6.00 Build 0)  -->
<svg version="1.1" id="Capa_1" xmlns="http://www.w3.org/2000/svg" xmlns:xlink="http://www.w3.org/1999/xlink" x="0px" y="0px"
	 viewBox="0 0 114.4 114.7" style="enable-background:new 0 0 114.4 114.7;" xml:space="preserve">
<style type="text/css">
	.st0{fill:#FFFFFF;}
</style>
<g>
	<path class="st0" d="M59,16.4c1.7,0,2.9-1.2,2.9-3V3.8c0-1.7-1.2-2.9-2.9-2.9c-1.7,0-2.9,1.2-2.9,2.9v9.7
		C56.1,15.2,57.3,16.4,59,16.4z"/>
	<path class="st0" d="M91.2,28.8c0.4,0,0.9-0.2,1.4-0.4c0.1,0,0.1-0.1,0.2-0.1h0.1l6.8-6.8c1.2-1.2,1.2-2.9,0-4.1
		c-1.2-1.2-2.9-1.2-4.1,0L88.9,24c-1.2,1.2-1.2,2.9,0,4.1C89.6,28.8,90.6,28.8,91.2,28.8z"/>
	<path class="st0" d="M108.9,54.7h-9.6c-1.9,0-3.4,1.5-3.4,3.4s1.5,3.4,3.4,3.4h9.6c2,0,3.4-1.4,3.4-3.4
		C112.3,56.2,110.8,54.7,108.9,54.7z"/>
	<path class="st0" d="M89.5,84.9c-1.2-1.2-2.9-1.2-4.1,0c-1.2,1.2-1.2,2.9,0,4.1l6.7,6.7c0.6,0.6,1.7,0.6,2.3,0.6c0.9,0,1.8,0,2-0.8
		c1.1-1.2,1-2.8-0.1-4L89.5,84.9z"/>
	<path class="st0" d="M28,84.9l-6.7,6.7c-1.2,1.2-1.2,2.9,0,4.1c0.6,0.6,1.7,0.6,2.3,0.6c0.5,0,1.2,0,1.9-0.6l6.7-6.7
		c1.2-1.2,1.2-2.9,0-4.1C31,83.8,29.2,83.8,28,84.9z"/>
	<path class="st0" d="M15.1,55.2H5.5c-1.7,0-2.9,1.2-2.9,2.9c0,1.7,1.2,2.9,2.9,2.9h9.6c1.7,0,2.9-1.2,2.9-2.9
		C18,56.4,16.8,55.2,15.1,55.2z"/>
	<path class="st0" d="M24.5,28.2c0.6,0.6,1.7,0.6,2.3,0.6c0.6,0,1-0.4,1.4-0.8c0.1-0.1,0.2-0.2,0.4-0.4c1.2-1.2,1.2-2.9,0-4.1
		L22,16.8c-1.2-1.2-3-1.2-4.1,0c-1.2,1.2-1.2,2.9,0,4.1L24.5,28.2z"/>
	<path class="st0" d="M59,33c-1.4,0-2.4,1-2.4,2.4c0,1.4,1,2.4,2.4,2.4c9.1,0,16.8,7.7,16.8,16.8c0,1.4,1,2.4,2.4,2.4
		c1.5,0,2.4-1,2.4-2.4C80.6,42.6,71,33,59,33z"/>
	<path class="st0" d="M80.7,30.1c-6.2-6.3-14.6-9.7-23.7-9.7c-18.1,0-33.4,15-34,33.4C23,65,27.7,74.9,36,81c5.2,4.2,8,9.8,8,16v11
		c0,6,3.5,6.6,5,6.6h15.8c2.9,0,5-2.1,5-5V97.5c0-6.1,3.4-12.8,8.6-17c8-6.2,12.5-15.8,12.5-26.1C90.9,45.2,87.4,36.8,80.7,30.1z
		 M64.8,109.8l-15.8,0c-0.1-0.2-0.2-0.7-0.2-1.7V97c0-0.2,0-0.4,0-0.7H65c0,0.4,0,0.8,0,1.2v12.1c0,0.1,0,0.1,0,0.1
		C64.9,109.7,64.9,109.8,64.8,109.8z M75.4,76.7c-4.6,3.8-8.1,9.2-9.6,14.8H48.2C46.9,86,43.8,81.1,39,77.2l-0.1-0.1
		c-7.1-5.2-11.1-13.7-11.1-23.2C28.4,38.4,41.8,25.2,57,25.2c7.8,0,15,2.9,20.3,8.3c5.7,5.7,8.8,13,8.8,20.9
		C86.1,63.2,82.2,71.4,75.4,76.7z"/>
</g>
</svg>
