<?xml version="1.0" encoding="utf-8"?>
<!-- Generator: Adobe Illustrator 24.0.1, SVG Export Plug-In . SVG Version: 6.00 Build 0)  -->
<svg version="1.1" id="Capa_1" xmlns="http://www.w3.org/2000/svg" xmlns:xlink="http://www.w3.org/1999/xlink" x="0px" y="0px"
	 viewBox="0 0 35.6 60.7" style="enable-background:new 0 0 35.6 60.7;" xml:space="preserve">
<style type="text/css">
	.st0{opacity:0.5;fill:#84CAC6;}
	.st1{fill:none;stroke:#020203;stroke-width:0.7639;stroke-miterlimit:10;}
</style>
<g>
	<path class="st0" d="M23,9.4h5.1v-9C27.3,0.3,24.2,0,20.7,0C13.3,0,8.2,4.7,8.2,13.2v7.9H0v10h8.2v25.2h10V31.1h7.9l1.2-10h-9.1
		v-6.9C18.2,11.3,19,9.4,23,9.4L23,9.4z"/>
	<path class="st1" d="M30,13.4h5.1v-9C34.3,4.3,31.2,4,27.7,4c-7.4,0-12.5,4.7-12.5,13.2v7.9H7v10h8.2v25.2h10V35.1h7.9l1.2-10h-9.1
		v-6.9C25.2,15.3,26,13.4,30,13.4L30,13.4z"/>
</g>
</svg>
