<?xml version="1.0" encoding="utf-8"?>
<!-- Generator: Adobe Illustrator 24.0.1, SVG Export Plug-In . SVG Version: 6.00 Build 0)  -->
<svg version="1.1" id="Capa_1" xmlns="http://www.w3.org/2000/svg" xmlns:xlink="http://www.w3.org/1999/xlink" x="0px" y="0px"
	 viewBox="0 0 114.4 114.7" style="enable-background:new 0 0 114.4 114.7;" xml:space="preserve">
<style type="text/css">
	.st0{fill:#FFFFFF;}
</style>
<path class="st0" d="M92.4,24.1C83.3,14.9,70.6,9.6,57.7,9.6c0,0-0.1,0-0.1,0C30.3,9.6,8.2,31.8,8.2,59c0,13.2,5.1,25.6,14.4,34.9
	c9.3,9.3,21.7,14.4,34.9,14.4s25.6-5.1,34.9-14.4s14.4-21.7,14.4-34.9C106.9,45.8,101.7,33.4,92.4,24.1z M46.2,28.1l3.2,4.6
	c0.8,1.1,0.7,2.5-0.1,3.6l-1.5,1.9c-0.3,0.4-0.8,0.6-1.3,0.5l-1.7-0.2c-3.2-0.4-6.4,1.1-8,4c-0.3,0.5-0.9,0.8-1.5,0.7l-3.9-0.5
	c-3.1-0.4-6.2,1-8,3.6c-1.7,2.5-1.8,5.8-0.1,8.3l2.6,4.1c2,3.2,6.2,4.3,9.5,2.5l2.6-1.4c0.9-0.5,2-0.4,2.8,0.1l5,3
	c0.5,0.3,1.1,0.5,1.8,0.5c1.6,0,3.1,0.8,4.2,2.3l2.5,3.4c0.2,0.3,0.4,0.6,0.7,0.8l3,3.5l-4.6,3.5c-1.6,1.3-2.8,3-3.4,4.9l-1.6,5.3
	c-0.1,0.2-0.1,0.3-0.2,0.4l-1.6,1.9c-1.1,1.3-1.9,2.8-2.3,4.4l-1.1-6.3c-0.2-1.4-0.8-2.8-1.7-3.9L36,76.4c-0.3-0.4-0.6-0.9-0.7-1.5
	l-1.8-6.5c-0.8-3-3.2-5.3-6.2-6.2l-0.4-0.1c-0.5-0.1-0.9-0.4-1.3-0.7l-3.4-3.2c-0.4-0.4-0.7-0.8-1-1.3c-1.7-3-4.8-4.7-8.2-4.7
	c-0.1,0-0.3,0-0.4,0c1.4-9.6,5.9-18.6,12.8-25.4l0,0c2.9-2.9,6.3-5.5,9.9-7.5l5.1,3.8c0.5,0.4,1.1,0.7,1.6,1.1
	C43.7,25.3,45.1,26.6,46.2,28.1z M12.3,56.4c2.2-0.3,4.4,0.7,5.5,2.7c0.5,0.8,1,1.5,1.7,2.2l3.4,3.2c0.8,0.8,1.9,1.4,3,1.7l0.4,0.1
	c1.6,0.4,2.9,1.7,3.4,3.3l1.8,6.5c0.3,1,0.8,2,1.4,2.8l5.5,7.2c0.5,0.6,0.8,1.4,0.9,2.2l1.5,8.9c0.2,1.6,1.6,2.8,3.2,2.8
	c0,0,0,0,0,0c0.4,0,0.9-0.1,1.3-0.3c1.6-0.6,2.6-2.1,2.8-3.8c0.1-1.4,0.7-2.7,1.6-3.8l1.6-1.9c0.5-0.5,0.8-1.2,1-1.8l1.6-5.3
	c0.4-1.2,1.1-2.2,2-2.9l4.8-3.7c0.8-0.6,1.3-1.4,1.4-2.4c0.2-1.1-0.1-2.1-0.8-3l-3.2-3.8c-0.2-0.2-0.3-0.4-0.4-0.6l-2.5-3.4
	c-1.8-2.5-4.5-3.9-7.3-3.9c0,0,0,0,0,0L43,56.4c-2.1-1.2-4.7-1.3-6.8-0.2l-2.6,1.4c-1.5,0.8-3.3,0.3-4.2-1.1l-2.6-4.1
	c-0.8-1.2-0.7-2.7,0.1-3.9c0.9-1.4,2.5-2.1,4.1-1.9l3.9,0.5c2.2,0.3,4.3-0.7,5.5-2.6c0.8-1.4,2.4-2.2,4.1-2l1.7,0.2
	c1.9,0.2,3.8-0.6,5-2.1l1.5-1.9c1.9-2.4,2-5.8,0.2-8.3l-3.2-4.6c-1.4-2-3.2-3.7-5.3-4.9c-0.4-0.2-0.8-0.5-1.2-0.8l-3.5-2.6
	c15.1-6.5,32.3-4.5,45.4,5.4l-0.7,0.9c-3,3.2-5.6,6.8-7.8,10.6l-1.8,3c-0.9,1.6-0.7,3.6,0.5,5c1,1.1,2.4,1.9,3.9,2l0.8,0.1
	c2.5,0.3,4.6,2.1,5.3,4.5c0.7,2.3,0,4.8-1.8,6.4L75,62.7c-1.2,1.1-1.9,2.7-1.9,4.4V69c0,1.6,0.8,3.2,2.2,4.1c1.5,1,2.5,2.6,2.7,4.4
	l0.2,1.9c0.2,2.2,2.1,3.8,4.2,3.8h4.9c0,0,0,0,0.1,0c3.3,0,6.2-1.9,7.5-4.9l0.3-0.7c0.9-2.1,2.9-3.4,5.1-3.6
	C98,80.4,94.3,86.3,89.6,91l0,0c-17.7,17.7-46.4,17.7-64.1,0c-8.6-8.6-13.3-19.9-13.3-32C12.2,58.1,12.3,57.3,12.3,56.4z M101.3,70
	l-1.1,0.1c-3.8,0.2-7.2,2.5-8.7,6l-0.3,0.6c-0.7,1.5-2.2,2.5-3.9,2.5l-4.9,0c-0.1,0-0.2-0.1-0.2-0.2l-0.2-1.9
	c-0.3-3-1.9-5.7-4.5-7.4c-0.2-0.1-0.3-0.4-0.3-0.6l0-2c0-0.5,0.2-1,0.6-1.3l8.3-7.4c3-2.6,4.2-6.8,3-10.6c-1.2-3.9-4.6-6.8-8.7-7.3
	l-0.8-0.1c-0.5-0.1-1-0.3-1.3-0.7c-0.1-0.1-0.1-0.2-0.1-0.3l1.7-3c2.1-3.6,4.5-6.9,7.3-9.9c0.1-0.1,0.1-0.1,0.2-0.2l0.6-0.8
	c0.6,0.5,1.1,1,1.6,1.6c8.5,8.4,13.3,20.1,13.3,32c0,3.7-0.5,7.4-1.3,11C101.4,70,101.3,70,101.3,70z"/>
</svg>
