<?xml version="1.0" encoding="utf-8"?>
<!-- Generator: Adobe Illustrator 24.0.1, SVG Export Plug-In . SVG Version: 6.00 Build 0)  -->
<svg version="1.1" id="Capa_1" xmlns="http://www.w3.org/2000/svg" xmlns:xlink="http://www.w3.org/1999/xlink" x="0px" y="0px"
	 viewBox="0 0 118 118" style="enable-background:new 0 0 118 118;" xml:space="preserve">
<style type="text/css">
	.st0{opacity:0.5;}
	.st1{fill:#76E1D3;}
	.st2{fill:none;stroke:#000000;stroke-width:1.357;stroke-miterlimit:10;}
</style>
<g>
	<g class="st0">
		<path class="st1" d="M102.2,26.2c0-9.3-7.6-16.9-16.9-16.9h-2.5V7.9c0-3.3-2.6-5.9-5.9-5.9S71,4.6,71,7.9v1.4H58.8V7.9
			c0-3.3-2.6-5.9-5.9-5.9S47,4.6,47,7.9v1.4H35V7.9C35,4.6,32.3,2,29.1,2s-5.9,2.6-5.9,5.9v1.4h-2.3C11.5,9.3,4,16.9,4,26.2v57.2
			c0,9.3,7.6,16.9,16.9,16.9h64.5c9.3,0,16.9-7.6,16.9-16.9c0-0.2,0-0.5,0-0.7c0-0.2,0-0.5,0-0.7V26.2z M85.3,88.4H20.8
			c-2.8,0-5.1-2.3-5.1-5.1V26.2c0-2.8,2.3-5.1,5.1-5.1h2.3v1.4c0,3.3,2.6,5.9,5.9,5.9s5.9-2.6,5.9-5.9v-1.4h12v1.4
			c0,3.3,2.6,5.9,5.9,5.9s5.9-2.6,5.9-5.9v-1.4H71v1.4c0,3.3,2.6,5.9,5.9,5.9s5.9-2.6,5.9-5.9v-1.4h2.5c2.8,0,5.1,2.3,5.1,5.1V82
			c0,0.2,0,0.5,0,0.7c0,0.2,0,0.5,0,0.7C90.4,86.1,88.1,88.4,85.3,88.4z"/>
		<path class="st1" d="M38.1,55.1c-1.1-1.1-2.6-1.7-4.2-1.6c-1.6,0-3,0.7-4.1,1.8c-2.3,2.3-2.2,6.1,0.2,8.3l11.7,11.2
			c2.2,2.1,5,3.2,8,3.2c0.3,0,0.5,0,0.8,0c3.2-0.2,6.3-1.8,8.3-4.3c0.1-0.1,0.1-0.2,0.2-0.3l18.1-25.3c0.9-1.3,1.3-2.8,1-4.4
			c-0.3-1.6-1.1-2.9-2.4-3.8c-1.3-0.9-2.8-1.3-4.4-1c-1.6,0.3-2.9,1.1-3.8,2.4h0L49.7,66.2L38.1,55.1z"/>
	</g>
	<g>
		<path class="st2" d="M114,42c0-9.3-7.6-16.9-16.9-16.9h-2.5v-1.4c0-3.3-2.6-5.9-5.9-5.9s-5.9,2.6-5.9,5.9v1.4H70.6v-1.4
			c0-3.3-2.6-5.9-5.9-5.9c-3.3,0-5.9,2.6-5.9,5.9v1.4h-12v-1.4c0-3.3-2.6-5.9-5.9-5.9S35,20.4,35,23.7v1.4h-2.3
			c-9.3,0-16.9,7.6-16.9,16.9v57.2c0,9.3,7.6,16.9,16.9,16.9h64.5c9.3,0,16.9-7.6,16.9-16.9c0-0.2,0-0.5,0-0.7c0-0.2,0-0.5,0-0.7V42
			z M97.2,104.2H32.7c-2.8,0-5.1-2.3-5.1-5.1V42c0-2.8,2.3-5.1,5.1-5.1H35v1.4c0,3.3,2.6,5.9,5.9,5.9s5.9-2.6,5.9-5.9v-1.4h12v1.4
			c0,3.3,2.6,5.9,5.9,5.9c3.3,0,5.9-2.6,5.9-5.9v-1.4h12.2v1.4c0,3.3,2.6,5.9,5.9,5.9s5.9-2.6,5.9-5.9v-1.4h2.5
			c2.8,0,5.1,2.3,5.1,5.1v55.8c0,0.2,0,0.5,0,0.7c0,0.2,0,0.5,0,0.7C102.2,102,100,104.2,97.2,104.2z"/>
		<path class="st2" d="M49.9,70.9c-1.1-1.1-2.6-1.7-4.2-1.6c-1.6,0-3,0.7-4.1,1.8c-2.3,2.3-2.2,6.1,0.2,8.3l11.7,11.2
			c2.2,2.1,5,3.2,8,3.2c0.3,0,0.5,0,0.8,0c3.2-0.2,6.3-1.8,8.3-4.3c0.1-0.1,0.1-0.2,0.2-0.3l18.1-25.3c0.9-1.3,1.3-2.8,1-4.4
			c-0.3-1.6-1.1-2.9-2.4-3.8c-1.3-0.9-2.8-1.3-4.4-1c-1.6,0.3-2.9,1.1-3.8,2.4h0L61.5,82L49.9,70.9z"/>
	</g>
</g>
</svg>
