<?xml version="1.0" encoding="utf-8"?>
<!-- Generator: Adobe Illustrator 24.0.1, SVG Export Plug-In . SVG Version: 6.00 Build 0)  -->
<svg version="1.1" id="Capa_1" xmlns="http://www.w3.org/2000/svg" xmlns:xlink="http://www.w3.org/1999/xlink" x="0px" y="0px"
	 viewBox="0 0 38.8 38.8" style="enable-background:new 0 0 38.8 38.8;" xml:space="preserve">
<style type="text/css">
	.st0{fill:#ECEFF1;}
	.st1{fill:#4DAF50;}
	.st2{fill:#FBFBFB;}
</style>
<g>
	<path class="st0" d="M33.2,5.6C29.5,2,24.6,0,19.5,0C4.6,0-4.7,16.1,2.7,28.8L0,38.8l10.2-2.7c4.5,2.4,8.1,2.2,9.2,2.3
		C36.7,38.5,45.2,17.7,33.2,5.6L33.2,5.6z"/>
	<path class="st1" d="M19.5,35.2L19.5,35.2L19.5,35.2c-5.2,0-8.5-2.4-8.8-2.6l-6.1,1.6l1.6-5.9l-0.4-0.6c-1.6-2.5-2.4-5.5-2.4-8.5
		C3.4,4.9,20.8-2.2,30.9,7.9C40.9,17.8,33.8,35.2,19.5,35.2z"/>
	<path class="st2" d="M28.3,23.1l0,0.1c-0.5-0.2-2.9-1.4-3.3-1.6c-1-0.4-0.7-0.1-2.6,2.1c-0.3,0.3-0.6,0.3-1,0.1
		c-0.5-0.2-2-0.8-3.9-2.4c-1.4-1.3-2.4-2.9-2.7-3.3c-0.5-0.8,0.5-0.9,1.4-2.6c0.2-0.3,0.1-0.6,0-0.8c-0.1-0.2-1.1-2.6-1.5-3.6
		c-0.4-0.9-0.8-0.8-1.1-0.8c-0.9-0.1-1.6-0.1-2.2,0.6c-2.6,2.9-2,5.8,0.3,9c4.4,5.7,6.7,6.8,11,8.3c1.2,0.4,2.2,0.3,3,0.2
		c0.9-0.1,2.9-1.2,3.3-2.3c0.4-1.1,0.4-2.1,0.3-2.3C29.1,23.5,28.8,23.3,28.3,23.1L28.3,23.1z"/>
</g>
</svg>
