<?xml version="1.0" encoding="utf-8"?>
<!-- Generator: Adobe Illustrator 24.0.1, SVG Export Plug-In . SVG Version: 6.00 Build 0)  -->
<svg version="1.1" id="Capa_1" xmlns="http://www.w3.org/2000/svg" xmlns:xlink="http://www.w3.org/1999/xlink" x="0px" y="0px"
	 viewBox="0 0 83 75" style="enable-background:new 0 0 83 75;" xml:space="preserve">
<style type="text/css">
	.st0{opacity:0.5;fill:#76E1D3;}
	.st1{fill:none;stroke:#000000;stroke-width:1.2;stroke-miterlimit:10;}
</style>
<g>
	<path class="st0" d="M45.2,8.7c-16.8,0-30.5,13.7-30.5,30.5c0,5.7,1.6,11.3,4.6,16.1c-1.2,4.2-3.4,12.2-3.4,12.3
		c-0.1,0.4,0,0.9,0.3,1.2c0.3,0.3,0.8,0.4,1.2,0.3l12.1-3.7c4.7,2.9,10.2,4.4,15.7,4.4C62,69.7,75.7,56,75.7,39.2S62,8.7,45.2,8.7z
		 M64.1,46.9c-1,6.1-4.7,9.2-10.8,9.2c-1,0-2.2-0.1-3.3-0.3c-10.5-1.6-18.7-11.2-21.9-19.5c-2.9-7.6,3.2-13.8,3.5-14.1
		c0.2-0.1,0.3-0.3,0.6-0.3c2.2-0.4,3.6-0.3,4.2,0.3c0.6,0.6,4.1,6.8,4.1,8.3c0,1.4-0.7,2.7-2.7,4.7c0.3,1.7,2.2,4.1,5.2,6.6
		c3,2.5,6,4.2,6.6,4.3c0.6-0.1,2.4-2.2,3.9-4.4c0-0.1,0.1-0.1,0.1-0.2c0.4-0.4,1.5-0.9,2.9-0.2c0.5,0.3,1.2,0.7,2.1,1.3
		c1.2,0.8,2.9,1.9,4.9,3C63.9,46,64.2,46.4,64.1,46.9z"/>
	<g>
		<path class="st1" d="M69.5,49.8c-2-1.1-3.7-2.2-4.9-3c-0.9-0.6-1.6-1.1-2.1-1.3c-1.4-0.7-2.5-0.2-2.9,0.2
			c-0.1,0.1-0.1,0.1-0.1,0.2c-1.5,2.2-3.3,4.3-3.9,4.4C55,50.1,52,48.4,49,45.9c-3-2.5-5-5-5.2-6.6c2-2,2.7-3.3,2.7-4.7
			c0-1.5-3.5-7.7-4.1-8.3c-0.6-0.6-2-0.7-4.2-0.3c-0.2,0-0.4,0.1-0.6,0.3c-0.3,0.3-6.4,6.5-3.5,14.1c3.2,8.3,11.4,18,21.9,19.5
			c1.2,0.2,2.3,0.3,3.3,0.3c6.2,0,9.8-3.1,10.8-9.2C70.2,50.4,69.9,50,69.5,49.8z"/>
		<g>
			<g>
				<path class="st1" d="M51.2,12.7c-16.8,0-30.5,13.7-30.5,30.5c0,5.7,1.6,11.3,4.6,16.1c-1.2,4.2-3.4,12.2-3.4,12.3
					c-0.1,0.4,0,0.9,0.3,1.2c0.3,0.3,0.8,0.4,1.2,0.3l12.1-3.7c4.7,2.9,10.2,4.4,15.7,4.4C68,73.7,81.7,60,81.7,43.2
					S68,12.7,51.2,12.7z"/>
			</g>
		</g>
	</g>
</g>
</svg>
