<?xml version="1.0" encoding="utf-8"?>
<!-- Generator: Adobe Illustrator 24.0.1, SVG Export Plug-In . SVG Version: 6.00 Build 0)  -->
<svg version="1.1" id="Capa_1" xmlns="http://www.w3.org/2000/svg" xmlns:xlink="http://www.w3.org/1999/xlink" x="0px" y="0px"
	 viewBox="0 0 118 118" style="enable-background:new 0 0 118 118;" xml:space="preserve">
<style type="text/css">
	.st0{opacity:0.5;}
	.st1{fill:#76E1D3;}
	.st2{fill:none;stroke:#000000;stroke-width:1.5;stroke-miterlimit:10;}
</style>
<g>
	<g class="st0">
		<path class="st1" d="M41,34.4h5.9c0-6.1,0.9-13.2-4.8-18.9c-1.8-1.8-3.5-3.2-4.9-4.4c-3.9-3.3-5.5-4.8-5.5-8.3h-5.9v43.9
			c-2.1-1.4-4.7-2.3-7.4-2.3c-7.4,0-13.4,6-13.4,13.4c0,7.4,6,13.4,13.4,13.4c7.4,0,13.5-6.1,13.4-13.6h0V14.2
			c1.9,1.6,4,3.2,6.3,5.5C41.7,23.5,41,28.5,41,34.4L41,34.4z"/>
		<path class="st1" d="M51.2,33.4v46.3c-2.1-1.4-4.7-2.3-7.4-2.3c-7.4,0-13.4,6-13.4,13.4c0,7.4,6,13.4,13.4,13.4s13.4-6,13.4-13.4
			V50.1c9.9-2,29.2-5.8,39-7.7v25.5c-2.1-1.4-4.7-2.3-7.4-2.3c-7.4,0-13.4,6-13.4,13.4c0,7.4,6,13.4,13.4,13.4
			c7.4,0,13.4-6,13.4-13.4c0-3.3,0-53.1,0-55.6L51.2,33.4z"/>
	</g>
	<g>
		<path class="st2" d="M52,45.4h5.9c0-6.1,0.9-13.2-4.8-18.9c-1.8-1.8-3.5-3.2-4.9-4.4c-3.9-3.3-5.5-4.8-5.5-8.3h-5.9v43.9
			c-2.1-1.4-4.7-2.3-7.4-2.3c-7.4,0-13.4,6-13.4,13.4c0,7.4,6,13.4,13.4,13.4c7.4,0,13.5-6.1,13.4-13.6h0V25.2
			c1.9,1.6,4,3.2,6.3,5.5C52.7,34.5,52,39.5,52,45.4L52,45.4z"/>
		<path class="st2" d="M62.2,44.4v46.3c-2.1-1.4-4.7-2.3-7.4-2.3c-7.4,0-13.4,6-13.4,13.4c0,7.4,6,13.4,13.4,13.4s13.4-6,13.4-13.4
			V61.1c9.9-2,29.2-5.8,39-7.7v25.5c-2.1-1.4-4.7-2.3-7.4-2.3c-7.4,0-13.4,6-13.4,13.4c0,7.4,6,13.4,13.4,13.4
			c7.4,0,13.4-6,13.4-13.4c0-3.3,0-53.1,0-55.6L62.2,44.4z"/>
	</g>
</g>
</svg>
