<?xml version="1.0" encoding="utf-8"?>
<!-- Generator: Adobe Illustrator 24.0.1, SVG Export Plug-In . SVG Version: 6.00 Build 0)  -->
<svg version="1.1" id="Capa_1" xmlns="http://www.w3.org/2000/svg" xmlns:xlink="http://www.w3.org/1999/xlink" x="0px" y="0px"
	 viewBox="0 0 118 118" style="enable-background:new 0 0 118 118;" xml:space="preserve">
<style type="text/css">
	.st0{opacity:0.5;}
	.st1{fill:#76E1D3;}
	.st2{fill:none;stroke:#000000;stroke-width:1.5;stroke-miterlimit:10;}
</style>
<g>
	<g class="st0">
		<path class="st1" d="M87.6,15.4H76.4l-1-3c-1.8-5.4-6.8-9-12.5-9H44.2c-5.7,0-10.7,3.6-12.5,9l-1,3H19.6
			c-9.4,0-17.1,7.7-17.1,17.1v52c0,9.4,7.7,17.1,17.1,17.1h68.1c9.4,0,17.1-7.7,17.1-17.1v-52C104.8,23.1,97.1,15.4,87.6,15.4z
			 M13.9,33.2c0-3.7,3-6.7,6.7-6.7h11.7c3.8,0,7.2-2.4,8.4-6.1l1.2-3.7c0.4-1.1,1.4-1.9,2.6-1.9h18.2c1.2,0,2.3,0.8,2.7,1.9l1.2,3.7
			c1.2,3.6,4.6,6.1,8.4,6.1h11.7c3.7,0,6.7,3,6.7,6.7l0,50.5c0,3.7-3,6.7-6.7,6.7h-66c-3.7,0-6.7-3-6.7-6.7V33.2z"/>
		<path class="st1" d="M53.6,83.3C66,83.3,76,73.2,76,60.8S66,38.4,53.6,38.4S31.1,48.4,31.1,60.8S41.2,83.3,53.6,83.3z M53.6,47.8
			c7.2,0,13,5.8,13,13c0,7.2-5.8,13-13,13s-13-5.8-13-13C40.6,53.7,46.4,47.8,53.6,47.8z"/>
	</g>
	<g>
		<path class="st2" d="M98.4,31.3H87.2l-1-3c-1.8-5.4-6.8-9-12.5-9H55c-5.7,0-10.7,3.6-12.5,9l-1,3H30.4c-9.4,0-17.1,7.7-17.1,17.1
			v49c0,9.4,7.7,17.1,17.1,17.1h68.1c9.4,0,17.1-7.7,17.1-17.1v-49C115.6,38.9,107.9,31.3,98.4,31.3z M25.4,49.3
			c0-3.6,2.9-6.6,6.6-6.6h11.4c3.7,0,7.1-2.4,8.3-5.9l1.2-3.6c0.4-1.1,1.4-1.9,2.6-1.9h17.8c1.2,0,2.2,0.8,2.6,1.9l1.2,3.6
			c1.2,3.6,4.5,5.9,8.3,5.9h11.4c3.6,0,6.6,2.9,6.6,6.6l0,46.7c0,3.6-2.9,6.6-6.6,6.6H32c-3.6,0-6.6-2.9-6.6-6.6V49.3z"/>
		<path class="st2" d="M64.4,94.1c12.4,0,22.4-10.1,22.4-22.4S76.8,49.2,64.4,49.2S42,59.3,42,71.6S52,94.1,64.4,94.1z M64.4,58.6
			c7.2,0,13,5.8,13,13c0,7.2-5.8,13-13,13s-13-5.8-13-13C51.4,64.5,57.3,58.6,64.4,58.6z"/>
	</g>
</g>
</svg>
