<?xml version="1.0" encoding="utf-8"?>
<!-- Generator: Adobe Illustrator 24.0.1, SVG Export Plug-In . SVG Version: 6.00 Build 0)  -->
<svg version="1.1" id="Capa_1" xmlns="http://www.w3.org/2000/svg" xmlns:xlink="http://www.w3.org/1999/xlink" x="0px" y="0px"
	 viewBox="0 0 115 115" style="enable-background:new 0 0 115 115;" xml:space="preserve">
<style type="text/css">
	.st0{opacity:0.5;}
	.st1{fill:#76E1D3;}
	.st2{fill:none;stroke:#000000;stroke-width:1.2066;stroke-miterlimit:10;}
</style>
<g class="st0">
	<path class="st1" d="M46.1,71.3c0.7,0,2.2-0.6,2.6-0.9l11-6.4h0.1l0.1-0.1l11.4-6.6c1.1-0.6,1.8-1.6,2.1-2.8
		c0.1-0.2,0.1-0.5,0.1-0.9c0-2.6-2.6-4.3-2.6-4.3L59.5,43l-11.2-6.4c-1.1-0.6-2.3-0.8-3.4-0.5s-2.1,1-2.7,2.1
		c-0.2,0.3-0.3,0.7-0.5,1.1c-0.1,0.2-0.1,0.5-0.2,0.9c0,0.1,0,0.2,0,0.3v13.2v13.2c0,1.2,0.5,2.4,1.3,3.2
		C43.8,70.8,44.9,71.3,46.1,71.3z"/>
	<path class="st1" d="M89.7,16.9C80,7.2,67,1.8,53.2,1.8c-13.8,0-26.8,5.4-36.5,15.1C6.9,26.7,1.5,39.8,1.5,53.5
		c0,13.8,5.4,26.8,15.1,36.5c9.7,9.7,22.7,15.1,36.5,15.1c13.8,0,26.8-5.4,36.5-15.1c9.7-9.7,15.1-22.7,15.1-36.5
		S99.4,26.7,89.7,16.9z M53.2,11.6c11.1,0,21.7,4.4,29.6,12.3c7.9,7.9,12.3,18.4,12.3,29.6c0,11.2-4.4,21.7-12.3,29.6l0,0
		C74.9,91,64.4,95.4,53.2,95.4S31.6,91,23.6,83.1c-7.9-7.8-12.3-18.3-12.3-29.6c0-11.1,4.4-21.7,12.3-29.6
		C31.6,16,42.1,11.6,53.2,11.6z"/>
</g>
<g>
	<path class="st2" d="M53.6,79.5c0.7,0,2.2-0.6,2.6-0.9l11-6.4h0.1l0.1-0.1l11.4-6.6c1.1-0.6,1.8-1.6,2.1-2.8
		c0.1-0.2,0.1-0.5,0.1-0.9c0-2.6-2.6-4.3-2.6-4.3L67,51.2l-11.2-6.4c-1.1-0.6-2.3-0.8-3.4-0.5c-1.1,0.3-2.1,1-2.7,2.1
		c-0.2,0.3-0.3,0.7-0.5,1.1c-0.1,0.2-0.1,0.5-0.2,0.9c0,0.1,0,0.2,0,0.3v13.2V75c0,1.2,0.5,2.4,1.3,3.2C51.3,79,52.4,79.5,53.6,79.5
		z"/>
	<path class="st2" d="M97.1,25.2C87.4,15.4,74.5,10,60.7,10c-13.8,0-26.8,5.4-36.5,15.1C14.4,35,9,48,9,61.7
		c0,13.8,5.4,26.8,15.1,36.5c9.7,9.7,22.7,15.1,36.5,15.1c13.8,0,26.8-5.4,36.5-15.1c9.7-9.7,15.1-22.7,15.1-36.5
		S106.9,34.9,97.1,25.2z M60.7,19.8c11.1,0,21.7,4.4,29.6,12.3c7.9,7.9,12.3,18.4,12.3,29.6c0,11.2-4.4,21.7-12.3,29.6l0,0
		c-7.9,7.9-18.4,12.3-29.6,12.3s-21.7-4.4-29.6-12.3c-7.9-7.8-12.3-18.3-12.3-29.6c0-11.1,4.4-21.7,12.3-29.6
		C39.1,24.2,49.6,19.8,60.7,19.8z"/>
</g>
</svg>
