<?xml version="1.0" encoding="utf-8"?>
<!-- Generator: Adobe Illustrator 24.0.1, SVG Export Plug-In . SVG Version: 6.00 Build 0)  -->
<svg version="1.1" id="Capa_1" xmlns="http://www.w3.org/2000/svg" xmlns:xlink="http://www.w3.org/1999/xlink" x="0px" y="0px"
	 viewBox="0 0 118 118" style="enable-background:new 0 0 118 118;" xml:space="preserve">
<style type="text/css">
	.st0{opacity:0.5;}
	.st1{fill:#76E1D3;stroke:#76E1D3;stroke-width:3.1302;stroke-miterlimit:10;}
	.st2{fill:none;stroke:#000000;stroke-width:1.5;stroke-miterlimit:10;}
</style>
<g>
	<g class="st0">
		<g>
			<g>
				<g>
					<path class="st1" d="M72.6,62.8L58.5,52.3V30.7c0-2.2-1.8-3.9-3.9-3.9c-2.2,0-3.9,1.8-3.9,3.9v23.5c0,1.2,0.6,2.4,1.6,3.1
						l15.7,11.8c0.7,0.5,1.5,0.8,2.3,0.8c1.2,0,2.4-0.5,3.1-1.6C74.7,66.6,74.3,64.1,72.6,62.8z"/>
				</g>
			</g>
			<g>
				<g>
					<path class="st1" d="M54.6,3.3C26.7,3.3,4,26,4,53.9s22.7,50.6,50.6,50.6s50.6-22.7,50.6-50.6S82.5,3.3,54.6,3.3z M54.6,96.6
						c-23.6,0-42.7-19.2-42.7-42.7S31,11.2,54.6,11.2c23.6,0,42.7,19.2,42.7,42.7S78.1,96.6,54.6,96.6z"/>
				</g>
			</g>
		</g>
	</g>
	<g>
		<g>
			<g>
				<g>
					<path class="st2" d="M63.4,13.5c-27.9,0-50.6,22.7-50.6,50.6s22.7,50.6,50.6,50.6S114,92,114,64.1S91.3,13.5,63.4,13.5z
						 M63.4,103.2c-21.5,0-39.1-17.5-39.1-39.1S41.9,25,63.4,25c21.5,0,39.1,17.5,39.1,39.1S85,103.2,63.4,103.2z"/>
				</g>
			</g>
			<path class="st2" d="M81.7,78.2c-0.2-1.5-1-2.7-2.1-3.6L66.1,64.5V43.7c0-3-2.5-5.5-5.5-5.5c-3,0-5.5,2.5-5.5,5.5v23.5
				c0,1.7,0.8,3.4,2.2,4.4L73,83.4c1,0.7,2.1,1.1,3.3,1.1c1.8,0,3.4-0.8,4.4-2.2C81.5,81.1,81.9,79.7,81.7,78.2z"/>
		</g>
	</g>
</g>
</svg>
