<?xml version="1.0" encoding="utf-8"?>
<!-- Generator: Adobe Illustrator 24.0.1, SVG Export Plug-In . SVG Version: 6.00 Build 0)  -->
<svg version="1.1" id="Capa_1" xmlns="http://www.w3.org/2000/svg" xmlns:xlink="http://www.w3.org/1999/xlink" x="0px" y="0px"
	 viewBox="0 0 115 115" style="enable-background:new 0 0 115 115;" xml:space="preserve">
<style type="text/css">
	.st0{opacity:0.5;}
	.st1{fill:#76E1D3;}
	.st2{fill:none;stroke:#000000;stroke-width:1.4179;stroke-miterlimit:10;}
</style>
<g>
	<g class="st0">
		<g>
			<path class="st1" d="M78.6,66.4c-5.8,0-10.9,2.9-14.1,7.2L36.7,59.4c0.5-1.6,0.8-3.2,0.8-4.9c0-2.3-0.5-4.5-1.3-6.6l29.1-17.5
				c3.2,3.8,8,6.3,13.4,6.3c9.7,0,17.6-7.9,17.6-17.6S88.3,1.4,78.6,1.4S61,9.3,61,19c0,2.2,0.5,4.4,1.2,6.3L33.1,42.9
				c-3.2-3.7-7.9-6.1-13.2-6.1c-9.7,0-17.6,7.9-17.6,17.6s7.9,17.6,17.6,17.6c5.9,0,11.1-2.9,14.3-7.4l27.7,14.2
				C61.4,80.5,61,82.2,61,84c0,9.7,7.9,17.6,17.6,17.6S96.2,93.8,96.2,84S88.3,66.4,78.6,66.4z"/>
		</g>
	</g>
	<g>
		<g>
			<path class="st2" d="M93.8,77.8c-5.8,0-10.9,2.9-14.1,7.2L51.9,70.8c0.5-1.6,0.8-3.2,0.8-4.9c0-2.3-0.5-4.5-1.3-6.6l29.1-17.5
				c3.2,3.8,8,6.3,13.4,6.3c9.7,0,17.6-7.9,17.6-17.6s-7.9-17.6-17.6-17.6s-17.6,7.9-17.6,17.6c0,2.2,0.5,4.4,1.2,6.3L48.3,54.3
				c-3.2-3.7-7.9-6.1-13.2-6.1c-9.7,0-17.6,7.9-17.6,17.6s7.9,17.6,17.6,17.6c5.9,0,11.1-2.9,14.3-7.4l27.7,14.2
				c-0.5,1.6-0.9,3.4-0.9,5.2c0,9.7,7.9,17.6,17.6,17.6s17.6-7.9,17.6-17.6S103.5,77.8,93.8,77.8z"/>
		</g>
	</g>
</g>
</svg>
