<?xml version="1.0" encoding="utf-8"?>
<!-- Generator: Adobe Illustrator 24.0.1, SVG Export Plug-In . SVG Version: 6.00 Build 0)  -->
<svg version="1.1" id="Capa_1" xmlns="http://www.w3.org/2000/svg" xmlns:xlink="http://www.w3.org/1999/xlink" x="0px" y="0px"
	 viewBox="0 0 118 118" style="enable-background:new 0 0 118 118;" xml:space="preserve">
<style type="text/css">
	.st0{opacity:0.5;fill:#76E1D3;}
	.st1{opacity:0.5;}
	.st2{fill:none;stroke:#76E1D3;stroke-width:1.4547;stroke-miterlimit:10;}
	.st3{fill:none;stroke:#000000;stroke-width:1.5;stroke-linecap:round;stroke-miterlimit:10;}
	.st4{fill:none;stroke:#000000;stroke-width:1.5;stroke-miterlimit:10;}
</style>
<g>
	<path class="st0" d="M72.1,34.7c-1.9-1.9-4.7-2.5-7.2-1.7L16.2,49.2c-2.3,0.8-4.1,2.7-4.6,5.1c-0.6,2.4,0.1,4.8,1.9,6.6l5.2,5.2
		L4.9,79.8c-2.7,2.7-2.7,7.2,0,9.9L17,101.9c1.3,1.3,3.1,2.1,5,2.1c0,0,0,0,0,0c1.9,0,3.6-0.7,5-2.1l13.8-13.8l5.2,5.2
		c1.7,1.7,4.2,2.4,6.6,1.9c2.4-0.6,4.3-2.3,5-4.6l16.2-48.7C74.6,39.3,74,36.5,72.1,34.7z M50.3,85.9l-9.6-9.6L22,95.1L11.6,84.7
		L30.4,66l-9.6-9.6l44.3-14.8L50.3,85.9z"/>
	<g class="st1">
		<line class="st2" x1="44.4" y1="10.9" x2="60" y2="26.6"/>
		<line class="st2" x1="69.1" y1="1.9" x2="69.1" y2="24.9"/>
		<line class="st2" x1="83.2" y1="28.6" x2="97.9" y2="13.8"/>
		<line class="st2" x1="87.7" y1="54.2" x2="102.4" y2="68.9"/>
		<line class="st2" x1="89.8" y1="42.7" x2="111" y2="42.7"/>
	</g>
	<g>
		<line class="st3" x1="46.5" y1="22.4" x2="62.2" y2="38"/>
		<line class="st3" x1="75.2" y1="11.3" x2="75.2" y2="34.3"/>
		<line class="st3" x1="87.4" y1="36" x2="102.1" y2="21.3"/>
		<line class="st3" x1="87.8" y1="63.6" x2="102.5" y2="78.4"/>
		<line class="st3" x1="94" y1="50.1" x2="115.1" y2="50.1"/>
		<path class="st4" d="M79.3,46.1c-1.9-1.9-4.7-2.5-7.2-1.7L23.4,60.6c-2.3,0.8-4.1,2.7-4.6,5.1c-0.6,2.4,0.1,4.8,1.9,6.6l5.2,5.2
			L12.1,91.2c-2.7,2.7-2.7,7.2,0,9.9l12.2,12.2c1.3,1.3,3.1,2.1,5,2.1c0,0,0,0,0,0c1.9,0,3.6-0.7,5-2.1l13.8-13.8l5.2,5.2
			c1.7,1.7,4.2,2.4,6.6,1.9c2.4-0.6,4.3-2.3,5-4.6L81,53.3C81.8,50.7,81.2,48,79.3,46.1z M57.5,97.3l-9.6-9.6l-18.8,18.8L18.8,96.2
			l18.8-18.8L28,67.8l44.3-14.8L57.5,97.3z"/>
	</g>
</g>
</svg>
