<?xml version="1.0" encoding="utf-8"?>
<!-- Generator: Adobe Illustrator 25.4.2, SVG Export Plug-In . SVG Version: 6.00 Build 0)  -->
<svg version="1.1" id="Capa_1" xmlns="http://www.w3.org/2000/svg" xmlns:xlink="http://www.w3.org/1999/xlink" x="0px" y="0px"
	 viewBox="0 0 118 118" style="enable-background:new 0 0 118 118;" xml:space="preserve">
<style type="text/css">
	.st0{opacity:0.5;}
	.st1{fill:#76E1D3;}
	.st2{fill:none;stroke:#000000;stroke-width:1.4;stroke-linecap:round;stroke-miterlimit:10;}
	.st3{opacity:0.5;fill:#76E1D3;}
</style>
<g>
	<g class="st0">
		<path class="st1" d="M45.1,12.8c2-0.3,4.1-0.7,6.3-1c1.4-0.2,2.3-1,2.9-2.2C55.2,7.8,56.1,6,57.1,4c0.2,0.2,0.3,0.4,0.4,0.7
			c0.8,1.5,1.6,3.1,2.3,4.6c0.7,1.7,2.1,2.4,3.9,2.7c1.8,0.2,3.7,0.6,5.7,0.8c-0.3,0.3-0.5,0.6-0.7,0.8c-1.1,1.1-2.3,2.3-3.5,3.4
			c-1.3,1.2-1.6,2.6-1.4,4.3c0.3,1.9,0.7,3.8,1,5.9c-1-0.5-1.8-1-2.6-1.4c-1.1-0.6-2.1-1.1-3.1-1.6c-1.2-0.7-2.4-0.7-3.7,0
			c-1.5,0.7-2.9,1.5-4.3,2.3c-0.4,0.2-0.8,0.4-1.4,0.7c0.3-2,0.6-3.8,1-5.6c0.4-2-0.1-3.5-1.6-4.9C47.6,15.5,46.4,14.1,45.1,12.8z"
			/>
	</g>
	<g class="st0">
		<path class="st1" d="M23.4,17.6c1.5-0.2,3-0.5,4.6-0.7c1-0.2,1.6-0.7,2.1-1.6c0.7-1.3,1.3-2.6,2-4.1c0.2,0.2,0.2,0.3,0.3,0.5
			c0.6,1.1,1.1,2.2,1.6,3.3c0.6,1.2,1.5,1.8,2.8,2c1.3,0.2,2.6,0.4,4.1,0.6c-0.2,0.2-0.4,0.4-0.6,0.6c-0.8,0.8-1.7,1.7-2.5,2.4
			c-1,0.9-1.2,1.9-1,3.1c0.2,1.4,0.5,2.8,0.7,4.3c-0.7-0.4-1.3-0.7-1.9-1c-0.7-0.4-1.5-0.8-2.3-1.1c-0.9-0.5-1.8-0.4-2.6,0
			c-1.1,0.6-2.1,1.1-3.2,1.6c-0.3,0.2-0.6,0.3-1,0.5c0.2-1.5,0.4-2.8,0.7-4.1c0.3-1.5-0.1-2.5-1.1-3.6
			C25.1,19.6,24.2,18.6,23.4,17.6z"/>
	</g>
	<g class="st0">
		<path class="st1" d="M73.4,17.6c1.5-0.2,3-0.5,4.6-0.7c1-0.2,1.6-0.7,2.1-1.6c0.7-1.3,1.3-2.6,2-4.1c0.2,0.2,0.2,0.3,0.3,0.5
			c0.6,1.1,1.1,2.2,1.6,3.3c0.6,1.2,1.5,1.8,2.8,2c1.3,0.2,2.6,0.4,4.1,0.6c-0.2,0.2-0.4,0.4-0.6,0.6c-0.8,0.8-1.7,1.7-2.5,2.4
			c-1,0.9-1.2,1.9-1,3.1c0.2,1.4,0.5,2.8,0.7,4.3c-0.7-0.4-1.3-0.7-1.9-1c-0.7-0.4-1.5-0.8-2.3-1.1c-0.9-0.5-1.8-0.4-2.6,0
			c-1.1,0.6-2.1,1.1-3.2,1.6c-0.3,0.2-0.6,0.3-1,0.5c0.2-1.5,0.4-2.8,0.7-4.1c0.3-1.5-0.1-2.5-1.1-3.6
			C75.1,19.6,74.3,18.6,73.4,17.6z"/>
	</g>
</g>
<g>
	<g>
		<path class="st2" d="M50,16c1.9-0.3,3.8-0.6,5.7-0.9c1.3-0.1,2.1-0.9,2.7-2c0.8-1.6,1.6-3.4,2.5-5.1c0.1,0.2,0.3,0.4,0.4,0.6
			c0.7,1.4,1.5,2.8,2.1,4.2c0.7,1.6,1.9,2.2,3.6,2.5c1.6,0.2,3.4,0.5,5.2,0.7c-0.3,0.3-0.4,0.5-0.7,0.7c-1,1-2.1,2.1-3.2,3.1
			c-1.2,1.1-1.5,2.4-1.3,3.9c0.3,1.7,0.6,3.5,0.9,5.4c-0.9-0.4-1.6-0.9-2.4-1.3c-1-0.5-1.9-1-2.8-1.5c-1.1-0.6-2.2-0.6-3.4,0
			c-1.3,0.7-2.7,1.4-3.9,2.1c-0.4,0.2-0.7,0.4-1.3,0.7c0.3-1.8,0.5-3.5,0.9-5.1c0.4-1.8-0.1-3.2-1.5-4.5C52.2,18.5,51.1,17.2,50,16z
			"/>
	</g>
	<g>
		<path class="st2" d="M30,20.4c1.3-0.2,2.8-0.4,4.2-0.7c0.9-0.1,1.5-0.7,1.9-1.5c0.6-1.2,1.2-2.4,1.9-3.7c0.1,0.1,0.2,0.3,0.3,0.4
			c0.5,1,1,2,1.5,3.1c0.5,1.1,1.4,1.6,2.6,1.8c1.2,0.1,2.4,0.4,3.7,0.5c-0.2,0.2-0.4,0.4-0.5,0.5c-0.7,0.7-1.6,1.6-2.3,2.2
			c-0.9,0.8-1.1,1.7-0.9,2.8c0.2,1.3,0.4,2.5,0.7,3.9c-0.7-0.4-1.2-0.6-1.7-0.9c-0.7-0.4-1.4-0.7-2.1-1c-0.8-0.4-1.6-0.4-2.4,0
			c-1,0.5-1.9,1-2.9,1.5c-0.3,0.1-0.5,0.3-0.9,0.4c0.2-1.3,0.4-2.5,0.6-3.7c0.3-1.3-0.1-2.3-1-3.3C31.6,22.3,30.8,21.3,30,20.4z"/>
	</g>
	<g>
		<path class="st2" d="M75.9,20.4c1.3-0.2,2.8-0.4,4.2-0.7c0.9-0.1,1.5-0.7,1.9-1.5c0.6-1.2,1.2-2.4,1.9-3.7
			c0.1,0.1,0.2,0.3,0.3,0.4c0.5,1,1,2,1.5,3.1c0.5,1.1,1.4,1.6,2.6,1.8c1.2,0.1,2.4,0.4,3.7,0.5c-0.2,0.2-0.4,0.4-0.5,0.5
			c-0.7,0.7-1.6,1.6-2.3,2.2c-0.9,0.8-1.1,1.7-0.9,2.8c0.2,1.3,0.4,2.5,0.7,3.9c-0.7-0.4-1.2-0.6-1.7-0.9c-0.7-0.4-1.4-0.7-2.1-1
			c-0.8-0.4-1.6-0.4-2.4,0c-1,0.5-1.9,1-2.9,1.5c-0.3,0.1-0.5,0.3-0.9,0.4c0.2-1.3,0.4-2.5,0.6-3.7c0.3-1.3-0.1-2.3-1-3.3
			C77.5,22.3,76.7,21.3,75.9,20.4z"/>
	</g>
</g>
<path class="st3" d="M80,31.6H29.7c-2.5,0-4.6,2.7-4.6,6.1v77l12.5,0.3V96.8c0-1.7,1.4-3.2,3.1-3.2h28.1c1.7,0,3.1,1.5,3.1,3.2V115
	l12.7-0.3v-77C84.6,34.3,82.6,31.6,80,31.6z"/>
<path class="st2" d="M32.2,113.8V41.8c0-3.1,2-5.7,4.4-5.7H85c2.4,0,4.4,2.6,4.4,5.7v72.1"/>
<path class="st2" d="M44.2,113.8v-13.4c0-1.6,1.4-3,3-3h27c1.6,0,3,1.4,3,3v13.4"/>
<path class="st2" d="M47.9,54.7H41c-0.5,0-1-0.5-1-1v-6.9c0-0.5,0.5-1,1-1h6.9c0.5,0,1,0.5,1,1v6.9C49,54.2,48.5,54.7,47.9,54.7z"/>
<path class="st2" d="M64.1,54.7h-6.9c-0.5,0-1-0.5-1-1v-6.9c0-0.5,0.5-1,1-1h6.9c0.5,0,1,0.5,1,1v6.9C65.1,54.2,64.7,54.7,64.1,54.7
	z"/>
<path class="st2" d="M80.7,54.7h-6.9c-0.5,0-1-0.5-1-1v-6.9c0-0.5,0.5-1,1-1h6.9c0.5,0,1,0.5,1,1v6.9C81.7,54.2,81.3,54.7,80.7,54.7
	z"/>
<path class="st2" d="M47.9,70.8H41c-0.5,0-1-0.5-1-1v-6.9c0-0.5,0.5-1,1-1h6.9c0.5,0,1,0.5,1,1v6.9C49,70.3,48.5,70.8,47.9,70.8z"/>
<path class="st2" d="M64.1,70.8h-6.9c-0.5,0-1-0.5-1-1v-6.9c0-0.5,0.5-1,1-1h6.9c0.5,0,1,0.5,1,1v6.9C65.1,70.3,64.7,70.8,64.1,70.8
	z"/>
<path class="st2" d="M80.7,70.8h-6.9c-0.5,0-1-0.5-1-1v-6.9c0-0.5,0.5-1,1-1h6.9c0.5,0,1,0.5,1,1v6.9C81.7,70.3,81.3,70.8,80.7,70.8
	z"/>
<path class="st2" d="M47.9,87.2H41c-0.5,0-1-0.5-1-1v-6.9c0-0.5,0.5-1,1-1h6.9c0.5,0,1,0.5,1,1v6.9C49,86.7,48.5,87.2,47.9,87.2z"/>
<path class="st2" d="M64.1,87.2h-6.9c-0.5,0-1-0.5-1-1v-6.9c0-0.5,0.5-1,1-1h6.9c0.5,0,1,0.5,1,1v6.9C65.1,86.7,64.7,87.2,64.1,87.2
	z"/>
<path class="st2" d="M80.7,87.2h-6.9c-0.5,0-1-0.5-1-1v-6.9c0-0.5,0.5-1,1-1h6.9c0.5,0,1,0.5,1,1v6.9C81.7,86.7,81.3,87.2,80.7,87.2
	z"/>
<line class="st2" x1="21.5" y1="115" x2="102.5" y2="115"/>
</svg>
