<?xml version="1.0" encoding="utf-8"?>
<!-- Generator: Adobe Illustrator 25.4.2, SVG Export Plug-In . SVG Version: 6.00 Build 0)  -->
<svg version="1.1" id="Capa_1" xmlns="http://www.w3.org/2000/svg" xmlns:xlink="http://www.w3.org/1999/xlink" x="0px" y="0px"
	 viewBox="0 0 118 118" style="enable-background:new 0 0 118 118;" xml:space="preserve">
<style type="text/css">
	.st0{opacity:0.5;}
	.st1{fill:none;stroke:#76E1D3;stroke-width:10;stroke-miterlimit:10;}
	.st2{fill:none;stroke:#000000;stroke-width:1.4;stroke-linecap:round;stroke-miterlimit:10;}
</style>
<g class="st0">
	<path class="st1" d="M103.5,45.9v54.5c0,6.5-5.2,11.7-11.7,11.7h-73c-6.5,0-11.7-5.2-11.7-11.7V42.6"/>
	<path class="st1" d="M7.3,45.9l39,28.7c0,0,8.8,7.9,17.8,0l39-28.7"/>
	<line class="st1" x1="89.9" y1="33.1" x2="105" y2="49.3"/>
	<path class="st1" d="M40.1,16.9l6.2-5c0,0,8.8-7.9,17.8,0l5.6,4.6"/>
	<line class="st1" x1="5.5" y1="46.5" x2="20.1" y2="33.9"/>
	<path class="st1" d="M20.6,55.7V19.5c0-1.5,1.2-2.7,2.7-2.7h63.6c1.5,0,2.7,1.2,2.7,2.7v36.2"/>
</g>
<g>
	<path class="st2" d="M110.4,47v52.3c0,6.5-5.2,11.7-11.7,11.7h-73c-6.5,0-11.7-5.2-11.7-11.7V47"/>
	<path class="st2" d="M14.2,47l39,28.7c0,0,8.8,7.9,17.8,0L110,47"/>
	<line class="st2" x1="96.8" y1="34.2" x2="110" y2="46"/>
	<path class="st2" d="M47,18l6.2-5c0,0,8.8-7.9,17.8,0l5.6,4.6"/>
	<line class="st2" x1="14" y1="47" x2="27" y2="35"/>
	<path class="st2" d="M27.5,56.8V20.6c0-1.5,1.2-2.7,2.7-2.7h63.6c1.5,0,2.7,1.2,2.7,2.7v36.2"/>
	<line class="st2" x1="45.4" y1="42.2" x2="62.3" y2="42.2"/>
	<line class="st2" x1="45.1" y1="54.3" x2="79.3" y2="54.3"/>
</g>
</svg>
