<?xml version="1.0" encoding="utf-8"?>
<!-- Generator: Adobe Illustrator 24.0.1, SVG Export Plug-In . SVG Version: 6.00 Build 0)  -->
<svg version="1.1" id="Capa_1" xmlns="http://www.w3.org/2000/svg" xmlns:xlink="http://www.w3.org/1999/xlink" x="0px" y="0px"
	 viewBox="0 0 114.4 114.7" style="enable-background:new 0 0 114.4 114.7;" xml:space="preserve">
<style type="text/css">
	.st0{fill:#FFFFFF;}
</style>
<g>
	<g>
		<path class="st0" d="M83,113.7h-3.1c-4.1,0-7.4-3.3-7.4-7.4v-2.9H53.7c-0.9,0-3.9-0.1-6.5-0.1v3c0,4.1-3.3,7.4-7.4,7.4h-3.1
			c-4.1,0-7.4-3.3-7.4-7.4V94.4c-4-3.5-7.3-8.1-9.6-13.2c-0.3-0.6-0.8-0.8-1.1-0.8h-7c-3.5,0-6.3-2.8-6.3-6.3v-7.8
			c0-3.5,2.8-6.3,6.3-6.3h4.5c1,0,1.3-0.7,1.4-0.9c0.1-0.4,0.2-1,0.3-1.5c0.1-0.3,0.1-0.6,0.2-0.7l0-0.2c1.8-6.3,5.1-11.9,9.6-16.3
			c0.2-0.2,0.3-0.6,0.3-0.9V21.9l3,0.6c4.9,1,9.3,3.8,12.4,7.7c0.4,0.4,1,0.6,1.5,0.5c3.1-0.7,6.4-1.1,8.9-1.1h19
			c20.2,0,36.6,16.5,36.6,36.7c0,13.2-7.2,25.8-18.4,32.3c-0.2,0.1-0.4,0.4-0.5,0.7v7C90.4,110.4,87.1,113.7,83,113.7z M42.2,98.1
			l2.6,0.1c2.4,0.1,7.7,0.2,8.9,0.2h23.8v7.9c0,1.3,1.1,2.4,2.4,2.4H83c1.3,0,2.4-1.1,2.4-2.4l0-7.8c0.3-1.7,1.5-3.3,3-4.2
			c9.6-5.5,15.8-16.5,15.8-27.9c0-17.5-14.2-31.7-31.6-31.7h-19c-2.2,0-5.1,0.3-7.9,0.9c-2.3,0.5-4.7-0.3-6.3-2.1l-0.1-0.1
			c-1.7-2.2-4-4-6.5-5v11c0,1.7-0.7,3.3-1.8,4.5c-3.9,3.8-6.7,8.6-8.2,14c0,0.2-0.1,0.5-0.2,0.8c-0.1,0.5-0.2,1-0.3,1.3l0,0.2
			c-0.7,2.9-3.2,4.8-6.2,4.8h-4.5c-0.7,0-1.3,0.6-1.3,1.3v7.8c0,0.7,0.6,1.3,1.3,1.3l7.3,0c2.4,0.2,4.5,1.6,5.4,3.8
			c2.2,4.8,5.3,9,9.1,12.2l0.9,0.7v14.2c0,1.3,1.1,2.4,2.4,2.4h3.1c1.3,0,2.4-1.1,2.4-2.4V98.1z"/>
		<path class="st0" d="M79.3,47H47.9c-1.5,0-2.7-1.2-2.7-2.7s1.2-2.7,2.7-2.7h31.4c1.5,0,2.7,1.2,2.7,2.7S80.8,47,79.3,47z"/>
		<circle class="st0" cx="33.9" cy="58.4" r="5.8"/>
		<path class="st0" d="M63.1,32.4c-8.7,0-15.8-7.1-15.8-15.8S54.4,0.8,63.1,0.8c8.7,0,15.8,7.1,15.8,15.8S71.8,32.4,63.1,32.4z
			 M63.1,5.8c-6,0-10.8,4.8-10.8,10.8s4.8,10.8,10.8,10.8c6,0,10.8-4.8,10.8-10.8S69.1,5.8,63.1,5.8z"/>
	</g>
</g>
</svg>
