<?xml version="1.0" encoding="utf-8"?>
<!-- Generator: Adobe Illustrator 24.0.1, SVG Export Plug-In . SVG Version: 6.00 Build 0)  -->
<svg version="1.1" id="Capa_1" xmlns="http://www.w3.org/2000/svg" xmlns:xlink="http://www.w3.org/1999/xlink" x="0px" y="0px"
	 viewBox="0 0 118 118" style="enable-background:new 0 0 118 118;" xml:space="preserve">
<style type="text/css">
	.st0{opacity:0.5;fill:#76E1D3;}
	.st1{fill:none;stroke:#000000;stroke-width:1.3317;stroke-miterlimit:10;}
</style>
<g>
	<path class="st0" d="M97,30.1h-5.9c4.7-4.2,7.4-9.3,7.4-14.4c0-7-5.4-14.1-17.5-14.1c-11.1,0-20.1,6-26,17.2
		C49.1,7.6,40.1,1.6,29,1.6c-5,0-9.2,1.2-12.3,3.6c-3.4,2.6-5.2,6.3-5.2,10.5c0,5.1,2.7,10.2,7.4,14.4H13c-5.2,0-9.5,4.3-9.5,9.7
		v12.2c0,4.8,3.5,8.8,8,9.6v35.3c0,5.3,4.3,9.7,9.5,9.7h68c5.2,0,9.5-4.3,9.5-9.7V61.6c4.5-0.7,8-4.7,8-9.6V39.8
		C106.5,34.5,102.2,30.1,97,30.1z M29,12.8c11.1,0,16.5,9.8,18.9,17C31,28,22.5,20.1,22.5,15.7C22.5,13.7,25.8,12.8,29,12.8z
		 M22.5,61.7h27v33.6h-27V61.7z M49.5,50.5h-35v-9.2h35V50.5z M87.5,61.7v33.6h-27V61.7H87.5z M95.5,41.4v9.2h-35v-9.2H95.5z
		 M62.2,29.8c2.5-7.2,7.8-17,18.8-17c2.5,0,4.6,0.5,5.7,1.4c0.7,0.5,0.8,1,0.8,1.6C87.5,20.1,79,28,62.2,29.8z"/>
	<path class="st1" d="M105.1,40h-5.8c4.6-4.2,7.2-9.3,7.2-14.4c0-7-5.3-14.1-17.2-14.1c-10.9,0-19.8,6-25.5,17.2
		c-5.8-11.1-14.6-17.2-25.5-17.2c-4.9,0-9.1,1.2-12.1,3.6c-3.3,2.6-5.1,6.3-5.1,10.5c0,5.1,2.7,10.2,7.2,14.4h-5.8
		c-5.1,0-9.3,4.3-9.3,9.7v12.2c0,4.8,3.4,8.8,7.9,9.6v35.3c0,5.3,4.2,9.7,9.3,9.7h66.8c5.1,0,9.3-4.3,9.3-9.7V71.4
		c4.4-0.7,7.9-4.7,7.9-9.6V49.6C114.5,44.3,110.3,40,105.1,40z M38.4,22.6c10.9,0,16.2,9.8,18.5,17C40.3,37.8,32,30,32,25.5
		C32,23.5,35.2,22.6,38.4,22.6z M32,71.6h26.5v33.6H32V71.6z M58.5,60.3H24.1v-9.2h34.4V60.3z M95.8,71.6v33.6H69.3V71.6H95.8z
		 M103.7,51.2v9.2H69.3v-9.2H103.7z M71,39.6c2.4-7.2,7.7-17,18.5-17c2.5,0,4.5,0.5,5.6,1.4c0.7,0.5,0.8,1,0.8,1.6
		C95.8,30,87.5,37.8,71,39.6z"/>
</g>
</svg>
