<?xml version="1.0" encoding="utf-8"?>
<!-- Generator: Adobe Illustrator 24.0.1, SVG Export Plug-In . SVG Version: 6.00 Build 0)  -->
<svg version="1.1" id="Capa_1" xmlns="http://www.w3.org/2000/svg" xmlns:xlink="http://www.w3.org/1999/xlink" x="0px" y="0px"
	 viewBox="0 0 118 118" style="enable-background:new 0 0 118 118;" xml:space="preserve">
<style type="text/css">
	.st0{opacity:0.5;}
	.st1{fill:#76E1D3;}
	.st2{fill:none;stroke:#000000;stroke-width:1.5;stroke-miterlimit:10;}
</style>
<g>
	<g class="st0">
		<circle class="st1" cx="56.1" cy="41.3" r="3.8"/>
		<circle class="st1" cx="56.1" cy="59.2" r="3.8"/>
		<circle class="st1" cx="56.1" cy="78" r="3.8"/>
		<path class="st1" d="M110.8,34.8c-5.6-9.2-14.1-15.8-25.3-19.7c-1,2.2-3.1,7.7-0.6,12.7c0,0,0,5.8-4.3,7
			c0.9,11.2,2.6,56.3-24.5,69.5v0.6h0.6c0.1,0,0.1,0,0.2,0c12.5-0.3,23.4-5.5,32.4-15.5c6.8-5.4,13.5-21.4,13.5-21.4l0,0
			c1.9-4.4,3.5-8.9,4.8-13.7l0-0.1c0.3-1-0.1-2.1-1-2.7c-0.8-0.6-2.3-1.3-4-2.1c0,0-2.8-0.8-0.2-3.6c3.4-3.6,7-6.9,8.1-8.3
			C111.2,36.8,111.3,35.7,110.8,34.8z"/>
		<path class="st1" d="M32.4,34.9c-4.6-1-4.6-7.1-4.6-7.1c2.4-4.9,0.5-10.4-0.5-12.6c-11,3.9-19.4,10.5-25,19.5
			c-0.6,0.9-0.5,2.1,0.2,2.9c1.1,1.3,4.7,4.6,8.1,8.3c2.6,2.8-0.2,3.6-0.2,3.6c-1.6,0.8-3.1,1.6-4,2.1c-0.9,0.6-1.3,1.7-1,2.7l0,0.1
			c1.3,4.7,2.9,9.3,4.8,13.7l0,0c0,0,6.7,16,13.5,21.4c9.1,10,20,15.2,32.4,15.5c0.1,0,0.1,0,0.2,0h0.6v-0.6
			C29.9,91.2,31.5,46.3,32.4,34.9z"/>
		<path class="st1" d="M82.9,14.9c0,0-0.2-1-0.6-2.2c0.1,0,0.1,0,0.2,0c-0.6-1.2-2-7-5.3-9.1c-1.9-1.2-4-1.9-6.3-1.5l-14,2.4
			l-14-2.4c-2.2-0.4-4.5,0.2-6.3,1.5c-1.1,0.8-5.1,5.1-7.1,11.1c0.1,0,0.2,0,0.4,0c0,0.1,0,0.2,0,0.2s3.8,6.6,0.9,12.2
			c0,0,0,9.4,9.4,5.6c0,0,9.4-3.8,12.2-6.6l0.4-0.9c1.1,0.6,2.4,0.9,3.9,0.9c1.3,0,2.4-0.3,3.5-0.7l0.3,0.7
			c2.8,2.8,12.2,6.6,12.2,6.6c9.4,3.8,9.4-5.6,9.4-5.6C79.1,21.5,82.9,14.9,82.9,14.9z"/>
	</g>
	<g>
		<path class="st2" d="M107.4,56.9c3.4-3.6,7-6.9,8.1-8.3c0.7-0.8,0.8-2,0.2-2.9c-6-9.7-15.1-16.5-27.3-20.3c-0.3-1.3-1-2.6-2.1-3.8
			c-0.3-0.3-0.4-0.2-0.8-0.5c0-0.1-0.2-0.5-0.2-0.6l0-0.3c-0.3-2.2-1.4-4.2-3.2-5.6c-1.8-1.4-4-1.9-6.3-1.5l-14,2.4l-14-2.4
			c-2.2-0.4-4.5,0.2-6.3,1.5c-1.8,1.4-3,3.3-3.2,5.6l0.3,0c-0.5,0.3-1.3,1-1.6,1.4c-1.3,1.3-2.1,2.8-2.2,4.4
			C27,28.4,21,32.4,17,35.9c-0.2,0.1-6.5,6.3-8.7,9.9c-0.6,0.9-0.5,2.1,0.2,2.9c1,1.2,3.9,4.6,7.3,7.6c0,0,3.5,2.3,0.4,4.3
			c-1.5,1-3,1.5-3.8,2.1c-0.9,0.6-1.3,1.7-1,2.7c2.4,9.7,6.3,19.2,11.1,26.9c4.3,6.8,9.3,12.3,14.9,16.2c6.9,4.8,14.7,7.4,23.3,7.5
			c0.1,0,0.1,0,0.2,0h0.9c0.1,0,0.1,0,0.2,0c12.5-0.3,23.4-5.5,32.4-15.5c6.8-5.4,13.5-21.4,13.5-21.4l0,0c1.9-4.4,3.5-8.9,4.8-13.7
			l0-0.1c0.3-1-0.1-2.1-1-2.7c-0.8-0.6-2.3-1.3-4-2.1C107.7,60.5,104.8,59.7,107.4,56.9z"/>
		<path class="st2" d="M34.7,25.9c0,0,3.8,6.6,0.9,12.2c0,0,0,9.4,9.4,5.6c0,0,9.4-3.8,12.2-6.6"/>
		<path class="st2" d="M37.6,21.2c0,0,3.6-5.4,19.4,4.8"/>
		<path class="st2" d="M88.4,25.9c0,0-3.8,6.6-0.9,12.2c0,0,0,9.4-9.4,5.6c0,0-9.4-3.8-12.2-6.6"/>
		<path class="st2" d="M85.6,21.2c0,0-4.5-5.4-20.4,4.8"/>
		<ellipse class="st2" cx="61.2" cy="31.6" rx="7.8" ry="5.9"/>
		<path class="st2" d="M37.6,43.8c0,0-4.7,58.3,23.5,71.5"/>
		<path class="st2" d="M85.4,43.3c0,0,6.8,57-24.3,72"/>
		<circle class="st2" cx="61.1" cy="52.3" r="3.8"/>
		<circle class="st2" cx="61.1" cy="70.2" r="3.8"/>
		<circle class="st2" cx="61.1" cy="89" r="3.8"/>
	</g>
</g>
</svg>
