<?xml version="1.0" encoding="utf-8"?>
<!-- Generator: Adobe Illustrator 24.0.1, SVG Export Plug-In . SVG Version: 6.00 Build 0)  -->
<svg version="1.1" id="Capa_1" xmlns="http://www.w3.org/2000/svg" xmlns:xlink="http://www.w3.org/1999/xlink" x="0px" y="0px"
	 viewBox="0 0 114.4 114.7" style="enable-background:new 0 0 114.4 114.7;" xml:space="preserve">
<style type="text/css">
	.st0{fill:#FFFFFF;}
</style>
<g>
	<g>
		<path class="st0" d="M45.6,79.8c-2-0.8-4.3-0.8-6.4-0.1c-2.8,0.9-5,3-6.1,5.8c-0.9,2.4-0.8,5,0.2,7.4c1.1,2.3,3,4.1,5.4,5
			c2,0.8,4.3,0.8,6.4,0.1c2.8-0.9,5-3,6.1-5.8c0.9-2.4,0.8-5-0.2-7.4C49.9,82.5,48,80.7,45.6,79.8z M47.1,90.6
			c-0.6,1.5-1.8,2.6-3.3,3.2c-1.1,0.4-2.4,0.4-3.5-0.1C39,93.2,38,92.2,37.4,91c-0.6-1.3-0.6-2.7-0.1-4c0.6-1.5,1.8-2.6,3.3-3.1
			c1.1-0.4,2.4-0.4,3.5,0.1c1.3,0.5,2.4,1.5,2.9,2.7C47.6,87.9,47.6,89.3,47.1,90.6z"/>
		<path class="st0" d="M75.5,46.3c1.4-0.5,2.6-1.2,3.7-2.2c1.9-1.8,2.9-4.2,3-6.8s-0.9-5-2.7-6.8c-2.5-2.6-6.5-3.6-10-2.5
			c-1.4,0.5-2.6,1.2-3.7,2.2c-1.9,1.8-2.9,4.2-3,6.8s0.9,5,2.7,6.8C68,46.5,72,47.4,75.5,46.3z M67.2,37.1c0-1.4,0.6-2.7,1.6-3.7
			c0.6-0.6,1.3-1,2-1.2c1.9-0.6,4.1-0.1,5.4,1.3c1,1,1.5,2.3,1.4,3.7c0,1.4-0.6,2.7-1.6,3.7c-0.6,0.6-1.3,1-2,1.2
			c-1.9,0.6-4.1,0.1-5.5-1.3C67.7,39.8,67.2,38.5,67.2,37.1z"/>
		<path class="st0" d="M47.8,38.9c0.7-0.1,1.4-0.2,2.1-0.4c4.3-1.4,7.1-5.5,6.7-10c-0.2-2.6-1.4-4.9-3.4-6.5c-2-1.7-4.5-2.4-7.1-2.2
			c-0.7,0.1-1.4,0.2-2.1,0.4c-4.3,1.4-7,5.5-6.6,10c0.2,2.5,1.4,4.9,3.4,6.5C42.7,38.4,45.2,39.1,47.8,38.9z M41.7,29.8
			c-0.2-2.4,1.3-4.7,3.6-5.4c0.4-0.1,0.8-0.2,1.2-0.2c1.4-0.1,2.8,0.3,3.9,1.2c1.1,0.9,1.7,2.1,1.8,3.5c0.2,2.4-1.3,4.7-3.6,5.4
			c-0.4,0.1-0.8,0.2-1.2,0.2c-1.4,0.1-2.8-0.3-3.9-1.2C42.5,32.4,41.8,31.2,41.7,29.8z"/>
		<path class="st0" d="M32.9,49.6c1.4-2.2,1.9-4.7,1.4-7.3c-0.5-2.5-2-4.7-4.1-6.1c-2.5-1.6-5.5-2-8.3-1.1c-2.1,0.7-3.9,2-5.1,3.9
			c-1.4,2.2-1.9,4.7-1.4,7.2s2,4.7,4.2,6.1c2.5,1.6,5.5,2,8.3,1.1C29.9,52.7,31.7,51.4,32.9,49.6z M21.9,48.6
			c-1.2-0.8-2-1.9-2.2-3.3c-0.3-1.4,0-2.8,0.8-3.9c0.7-1,1.6-1.7,2.8-2.1c1.5-0.5,3.2-0.3,4.5,0.6c1.2,0.8,2,1.9,2.2,3.3
			c0.3,1.4,0,2.8-0.8,3.9c-0.7,1-1.6,1.7-2.8,2.1C24.9,49.7,23.2,49.5,21.9,48.6z"/>
		<path class="st0" d="M112,1.1c-0.5-0.2-1.3-0.5-2.3-0.1c-1.2,0.4-4.4,1.4-18.3,24.1c-0.3,0.5-0.6,0.9-0.8,1.4
			c-6.4-7.9-15.1-13.9-24.8-17.2c-11.2-3.7-23-3.8-34.2-0.1l0,0C24,11.6,15.7,17.3,9.8,23.9C2.6,32,0,40.6,2.4,48
			c2.9,9,9.2,11.1,14.3,12.8c4.1,1.4,7.4,2.5,8.8,6.7c1.4,4.3-0.6,7.1-3.1,10.6c-3.1,4.4-6.9,9.8-4,18.8c2.4,7.5,9.6,12.8,20.2,15.2
			c8.6,1.9,18.7,1.6,26.3-0.9l0,0c13.7-4.5,24.9-14,31.5-26.8c6.5-12.6,7.7-27,3.5-40.5c2.1-4.8,4-9.5,5.8-13.9
			c3-7.5,5.2-13.7,6.5-18.2C113.9,5.9,114.4,2.4,112,1.1z M92.5,82.4c-6,11.8-16.3,20.5-29,24.6l0,0c-13.5,4.4-36.7,1.5-40.9-11.4
			c-2.2-6.9,0.5-10.8,3.4-14.8c2.7-3.8,5.8-8.2,3.7-14.5c-2.1-6.4-7.1-8.1-11.6-9.6c-4.8-1.6-9.3-3.1-11.5-10
			c-2.6-8,2.9-15.9,6.5-19.9c5.3-6,13.1-11.3,19.8-13.5l0,0C43.3,10,54.1,10,64.3,13.5c9.4,3.2,17.8,9.2,23.7,17
			c-6.5,10.9-13.4,23.3-18.3,33C58,69,59,77.7,59.7,84.1c0.6,5.4,0.7,8.1-3.1,9.7c-0.9,0.4-1.5,1.4-1.3,2.4s1,1.8,2,1.9
			c0.3,0,7.1,0.5,14.1-1.8l0,0c4.9-1.6,8.7-4.1,11.3-7.6c3.2-4.2,4.6-9.7,4-16.3C90,66,93.6,58.4,97,50.6
			C99.1,61.4,97.6,72.5,92.5,82.4z M82.4,73.4c0.6,9.5-3.5,15.8-12.3,18.7l0,0c-2.3,0.8-4.7,1.2-6.7,1.4c1.5-3,1.1-6.7,0.7-9.8
			c-0.7-6-1.3-11.8,7.2-15.9L82.4,73.4z M100.6,30.8c-5.1,12.6-11.5,27-17.1,38.2l-1.7-0.9l-7.5-3.9c5.1-9.9,11.8-22,18.3-32.7l0,0
			c0.8-1.3,1.5-2.5,2.2-3.7c7.5-12.3,11.7-18,14-20.5C108.1,10.7,106,17.4,100.6,30.8z"/>
	</g>
</g>
</svg>
