<?xml version="1.0" encoding="utf-8"?>
<!-- Generator: Adobe Illustrator 24.0.1, SVG Export Plug-In . SVG Version: 6.00 Build 0)  -->
<svg version="1.1" id="Capa_1" xmlns="http://www.w3.org/2000/svg" xmlns:xlink="http://www.w3.org/1999/xlink" x="0px" y="0px"
	 viewBox="0 0 118 118" style="enable-background:new 0 0 118 118;" xml:space="preserve">
<style type="text/css">
	.st0{opacity:0.5;fill:#76E1D3;stroke:#76E1D3;stroke-width:2.8087;stroke-miterlimit:10;}
	.st1{fill:none;stroke:#000000;stroke-width:1.5;stroke-miterlimit:10;}
</style>
<g>
	<g>
		<path class="st0" d="M60.2,41.8c-0.8-20.2-29.6-20.2-30.5,0C29.7,50.2,36.5,57,45,57C53.4,57,60.2,50.2,60.2,41.8z M36.9,41.8
			c0-4.4,3.6-8.1,8.1-8.1c4.4,0,8.1,3.6,8.1,8.1C52.6,52.5,37.3,52.5,36.9,41.8z"/>
		<path class="st0" d="M50.7,94.2c2.8-1.1,5.4-2.9,7.3-5.4c8.1-10.1,25.6-34.3,25.1-46.9c0-10.3-4-19.9-11.2-27.2
			C64.7,7.4,55.1,3.4,44.8,3.4h0C24.1,3,6,21.2,6.4,41.9C6.9,56.5,21,75,31.9,89.2c1.9,2.2,4.2,3.9,6.8,4.9
			c-15.8,0.5-27.9,3.3-27.9,6.7c0,3.7,14.7,6.7,32.8,6.7s32.8-3,32.8-6.7C76.4,97.5,65.4,94.8,50.7,94.2z M37.8,81.4
			C24.3,64.1,16.2,49.8,16.2,42.5c0-15.8,12.8-28.6,28.5-28.6h0c15.7,0,28.5,12.8,28.5,28.6c0,7.3-7.8,21.5-21.5,38.9
			C48.4,85.8,41.2,85.8,37.8,81.4z"/>
	</g>
	<g>
		<path class="st1" d="M85.4,101.1c11.1,1.2,18.7,3.6,18.7,6.3c0,3.9-15.5,7.1-34.6,7.1s-34.6-3.2-34.6-7.1c0-2.9,8.5-5.4,20.8-6.5"
			/>
		<g>
			<path class="st1" d="M99.7,22.7c-7.7-7.8-18-12-29-12h0c-22.1-0.5-41.4,19-41,41c0.6,15.6,15.6,35.4,27.2,50.6
				c3.4,4.1,8.4,6.4,13.8,6.4c5.6,0,10.7-2.5,14.1-6.9c8.7-10.8,27.4-36.6,26.8-50.1C111.6,40.8,107.4,30.5,99.7,22.7L99.7,22.7z
				 M78.1,93.9c-3.6,4.8-11.2,4.8-14.8,0C48.8,75.5,40.2,60.2,40.2,52.4c0-16.8,13.7-30.5,30.5-30.5h0c16.8,0,30.4,13.7,30.4,30.5
				C101.1,60.3,92.7,75.4,78.1,93.9L78.1,93.9z M70.8,68c-9,0-16.3-7.3-16.3-16.3c0.9-21.6,31.7-21.6,32.6,0
				C87.1,60.7,79.8,68,70.8,68z M70.8,45.9c-3.2,0-5.8,2.6-5.8,5.8c0.3,7.6,11.2,7.6,11.5,0C76.6,48.5,74,45.9,70.8,45.9z"/>
		</g>
	</g>
</g>
</svg>
