<?xml version="1.0" encoding="utf-8"?>
<!-- Generator: Adobe Illustrator 24.0.1, SVG Export Plug-In . SVG Version: 6.00 Build 0)  -->
<svg version="1.1" id="Capa_1" xmlns="http://www.w3.org/2000/svg" xmlns:xlink="http://www.w3.org/1999/xlink" x="0px" y="0px"
	 viewBox="0 0 118 118" style="enable-background:new 0 0 118 118;" xml:space="preserve">
<style type="text/css">
	.st0{opacity:0.5;fill:#76E1D3;}
	.st1{fill:none;stroke:#000000;stroke-width:1.5;stroke-miterlimit:10;}
</style>
<g>
	<g>
		<path class="st0" d="M96.8,12.2c-5.5-5.5-12.7-8.5-20.4-8.5H32.6c-15.9,0-28.9,13-28.9,28.9v43.7c0,15.9,13,28.9,28.9,28.9h43.7
			c15.9,0,28.9-13,28.9-28.9V32.6C105.3,24.9,102.3,17.7,96.8,12.2z M92.6,76.4c0,9-7.3,16.3-16.3,16.3H32.6c0,0,0,0,0,0
			c-4.3,0-8.4-1.7-11.5-4.8s-4.8-7.2-4.8-11.5V32.6c0-9,7.3-16.3,16.3-16.3h43.7c9,0,16.3,7.3,16.3,16.3L92.6,76.4z"/>
		<path class="st0" d="M54.5,31.2c-12.9,0-23.3,10.5-23.3,23.3s10.5,23.3,23.3,23.3c12.9,0,23.3-10.5,23.3-23.3S67.4,31.2,54.5,31.2
			z M66.3,54.5c0,6.5-5.3,11.8-11.8,11.8S42.7,61,42.7,54.5S48,42.7,54.5,42.7S66.3,48,66.3,54.5z"/>
		<path class="st0" d="M80.7,22.6c-1.5,0-3,0.6-4,1.7c-1.1,1.1-1.7,2.5-1.7,4.1c0,1.5,0.6,3,1.7,4.1c1.1,1.1,2.5,1.7,4.1,1.7
			c1.5,0,3-0.6,4.1-1.7c1.1-1.1,1.7-2.5,1.7-4.1c0-1.5-0.6-3-1.7-4.1C83.7,23.3,82.2,22.6,80.7,22.6z"/>
	</g>
	<g>
		<path class="st1" d="M87.3,16.7H43.6c-14.8,0-26.9,12.1-26.9,26.9v43.7c0,14.8,12.1,26.9,26.9,26.9h43.7
			c14.8,0,26.9-12.1,26.9-26.9V43.6C114.3,28.8,102.2,16.7,87.3,16.7z M103.9,86.4c0,9.6-7.8,17.5-17.5,17.5H44.6
			c-9.6,0-17.5-7.8-17.5-17.5V44.6c0-9.6,7.8-17.5,17.5-17.5h41.9c9.6,0,17.5,7.8,17.5,17.5L103.9,86.4L103.9,86.4z"/>
		<path class="st1" d="M65.5,44.3c-11.7,0-21.2,9.5-21.2,21.2c0,11.7,9.5,21.2,21.2,21.2s21.2-9.5,21.2-21.2
			C86.7,53.8,77.2,44.3,65.5,44.3z M65.5,77.2c-6.5,0-11.7-5.3-11.7-11.7c0-6.5,5.3-11.7,11.7-11.7S77.2,59,77.2,65.5
			C77.2,72,72,77.2,65.5,77.2z"/>
		<path class="st1" d="M90.7,35.6c-1.5,0-3,0.6-4.1,1.7c-1.1,1.1-1.7,2.6-1.7,4.1c0,1.5,0.6,3,1.7,4.1c1.1,1.1,2.6,1.7,4.1,1.7
			c1.5,0,3-0.6,4.1-1.7c1.1-1.1,1.7-2.6,1.7-4.1c0-1.5-0.6-3-1.7-4.1C93.7,36.2,92.2,35.6,90.7,35.6z"/>
	</g>
</g>
</svg>
