<?xml version="1.0" encoding="utf-8"?>
<!-- Generator: Adobe Illustrator 24.0.1, SVG Export Plug-In . SVG Version: 6.00 Build 0)  -->
<svg version="1.1" id="Capa_1" xmlns="http://www.w3.org/2000/svg" xmlns:xlink="http://www.w3.org/1999/xlink" x="0px" y="0px"
	 viewBox="0 0 114.4 114.7" style="enable-background:new 0 0 114.4 114.7;" xml:space="preserve">
<style type="text/css">
	.st0{fill:none;stroke:#FFFFFF;stroke-width:4.4015;stroke-miterlimit:10;}
</style>
<g>
	<g>
		<path class="st0" d="M111.8,62.5c0,1.4-1.2,2.6-2.6,2.6H97.5c-1.2,0-2.2,0.8-2.5,1.9c-0.9,3.5-2.3,6.9-4.2,10.1
			c-0.6,1-0.4,2.3,0.4,3.2l8.3,8.3c0.5,0.5,0.8,1.1,0.8,1.8c0,0.7-0.3,1.4-0.8,1.8l-7.4,7.4c-1,1-2.7,1-3.7,0l-8.3-8.3
			c-0.8-0.8-2.1-1-3.2-0.4c-3.1,1.8-6.5,3.2-10.1,4.2c-1.1,0.3-1.9,1.3-1.9,2.5v11.7c0,1.4-1.2,2.6-2.6,2.6H52
			c-1.4,0-2.6-1.2-2.6-2.6V97.6c0-1.2-0.8-2.2-1.9-2.5c-3.5-0.9-6.9-2.3-10.1-4.2c-0.4-0.2-0.9-0.4-1.3-0.4c-0.7,0-1.3,0.3-1.8,0.8
			L26,99.6c-1,1-2.7,1-3.7,0l-7.4-7.4c-1-1-1-2.7,0-3.7l8.3-8.3c0.8-0.8,1-2.1,0.4-3.2c-1.8-3.1-3.2-6.5-4.2-10.1
			c-0.3-1.1-1.3-1.9-2.5-1.9H5.2c-1.4,0-2.6-1.2-2.6-2.6V52.1c0-1.4,1.2-2.6,2.6-2.6h11.7c1.2,0,2.2-0.8,2.5-1.9
			c0.9-3.5,2.3-6.9,4.2-10.1c0.6-1,0.4-2.3-0.4-3.2L15,26.1c-1-1-1-2.7,0-3.7l7.4-7.4c1-1,2.7-1,3.7,0l8.3,8.3
			c0.8,0.8,2.1,1,3.2,0.4c3.1-1.8,6.5-3.2,10.1-4.2c1.1-0.3,1.9-1.3,1.9-2.5V5.4c0-1.4,1.2-2.6,2.6-2.6h10.4c1.4,0,2.6,1.2,2.6,2.6
			v11.7c0,1.2,0.8,2.2,1.9,2.5c3.6,0.9,6.9,2.3,10.1,4.2c1,0.6,2.3,0.4,3.2-0.4l8.3-8.3c1-1,2.7-1,3.7,0l7.4,7.4
			c0.5,0.5,0.8,1.1,0.8,1.8s-0.3,1.4-0.8,1.8l-8.3,8.3c-0.8,0.8-1,2.1-0.4,3.2c1.8,3.1,3.2,6.5,4.2,10.1c0.3,1.1,1.3,1.9,2.5,1.9
			h11.7c1.4,0,2.6,1.2,2.6,2.6v10.3H111.8z"/>
		<circle class="st0" cx="57.2" cy="57.3" r="18.2"/>
	</g>
</g>
</svg>
