<?xml version="1.0" encoding="utf-8"?>
<!-- Generator: Adobe Illustrator 24.0.1, SVG Export Plug-In . SVG Version: 6.00 Build 0)  -->
<svg version="1.1" id="Capa_1" xmlns="http://www.w3.org/2000/svg" xmlns:xlink="http://www.w3.org/1999/xlink" x="0px" y="0px"
	 viewBox="0 0 114.4 114.7" style="enable-background:new 0 0 114.4 114.7;" xml:space="preserve">
<style type="text/css">
	.st0{fill:#FFFFFF;}
</style>
<g>
	<path class="st0" d="M87,54.4c0-28-27.5-50.1-28.7-51c-0.8-0.6-1.9-0.6-2.7,0C54.5,4.3,27,26.4,27,54.4c0,25.7,23.2,46.4,27.9,50.3
		v5.4c0,1.2,1,2.1,2.1,2.1s2.1-1,2.1-2.1v-5.4C63.8,100.7,87,80,87,54.4z M59.1,98.9V74.6l12.1-10.1c0.9-0.8,1-2.1,0.3-3
		c-0.8-0.9-2.1-1-3-0.3l-9.4,7.8v-7.3l12.1-10.1c0.9-0.8,1-2.1,0.3-3c-0.8-0.9-2.1-1-3-0.3l-9.4,7.8v-9.4l12.1-10.1
		c0.9-0.8,1-2.1,0.3-3c-0.8-0.9-2.1-1-3-0.3l-9.4,7.8V24.3c0-1.2-1-2.1-2.1-2.1s-2.1,1-2.1,2.1v16.9l-9.4-7.8
		c-0.9-0.8-2.3-0.6-3,0.3c-0.8,0.9-0.6,2.3,0.3,3l12.1,10.1v9.4l-9.4-7.8c-0.9-0.8-2.3-0.6-3,0.3c-0.8,0.9-0.6,2.3,0.3,3l12.1,10.1
		v7.3l-9.4-7.8c-0.9-0.8-2.3-0.6-3,0.3c-0.8,0.9-0.6,2.3,0.3,3l12.1,10.1v24.3c-7.3-6.8-23.6-24.4-23.6-44.6
		c0-22.5,20.3-41.8,25.7-46.5c5.4,4.8,25.7,24,25.7,46.5C82.7,74.5,66.4,92.1,59.1,98.9z"/>
</g>
</svg>
