<?xml version="1.0" encoding="utf-8"?>
<!-- Generator: Adobe Illustrator 24.0.1, SVG Export Plug-In . SVG Version: 6.00 Build 0)  -->
<svg version="1.1" id="Capa_1" xmlns="http://www.w3.org/2000/svg" xmlns:xlink="http://www.w3.org/1999/xlink" x="0px" y="0px"
	 viewBox="0 0 118 118" style="enable-background:new 0 0 118 118;" xml:space="preserve">
<style type="text/css">
	.st0{opacity:0.5;fill:#76E1D3;}
	.st1{fill:none;stroke:#000000;stroke-width:1.5;stroke-miterlimit:10;}
</style>
<g>
	<path class="st0" d="M108.6,40.4c-1.1-3.3-3.9-5.7-7.3-6.2l-26.2-3.8L63.3,6.6c-1.5-3.1-4.7-5.1-8.1-5.1c-3.5,0-6.6,1.9-8.1,5.1
		L35.3,30.4L9.1,34.2c-3.4,0.5-6.2,2.9-7.3,6.2c-1.1,3.3-0.2,6.9,2.3,9.3l19,18.5l-4.5,26.1c-0.6,3.4,0.8,6.8,3.6,8.9
		c1.6,1.1,3.4,1.7,5.3,1.7c1.5,0,2.9-0.4,4.2-1l23.5-12.3l23.5,12.3c1.3,0.7,2.8,1.1,4.2,1.1c1.9,0,3.7-0.6,5.3-1.7
		c2.8-2,4.2-5.4,3.6-8.9l-4.5-26.1l19-18.5C108.8,47.3,109.7,43.7,108.6,40.4z M73.8,63.8l4.4,25.7l-23-12.1L32.1,89.5l4.4-25.7
		L17.9,45.6l25.8-3.7l11.5-23.4l11.5,23.4l25.8,3.7L73.8,63.8z"/>
	<path class="st1" d="M116.3,49.7c-1.1-3.4-4-5.9-7.6-6.4l-27.1-3.9L69.4,14.8c-1.6-3.2-4.8-5.2-8.4-5.2c-3.6,0-6.8,2-8.4,5.2
		L40.5,39.4l-27.1,3.9c-3.6,0.5-6.5,3-7.6,6.4c-1.1,3.4-0.2,7.1,2.4,9.6l19.6,19.1l-4.6,27c-0.6,3.5,0.8,7.1,3.7,9.2
		c1.6,1.2,3.5,1.8,5.5,1.8c1.5,0,3-0.4,4.4-1.1L61,102.6l24.3,12.8c1.4,0.7,2.9,1.1,4.4,1.1c1.9,0,3.9-0.6,5.5-1.8
		c2.9-2.1,4.3-5.6,3.7-9.2l-4.6-27l19.6-19.1C116.5,56.8,117.4,53.1,116.3,49.7z M82,74.8l5,29L61,90.1l-26,13.7l5-29l-21-20.5
		L48,50.1l13-26.4l13,26.4l29.1,4.2L82,74.8z"/>
</g>
</svg>
