<?xml version="1.0" encoding="utf-8"?>
<!-- Generator: Adobe Illustrator 24.0.1, SVG Export Plug-In . SVG Version: 6.00 Build 0)  -->
<svg version="1.1" id="Capa_1" xmlns="http://www.w3.org/2000/svg" xmlns:xlink="http://www.w3.org/1999/xlink" x="0px" y="0px"
	 viewBox="0 0 114.4 114.7" style="enable-background:new 0 0 114.4 114.7;" xml:space="preserve">
<style type="text/css">
	.st0{fill:#FFFFFF;}
</style>
<g>
	<g>
		<g>
			<g>
				<circle class="st0" cx="59.5" cy="77.5" r="2.2"/>
			</g>
		</g>
		<g>
			<g>
				<circle class="st0" cx="21.9" cy="90.8" r="2.2"/>
			</g>
		</g>
		<g>
			<g>
				<path class="st0" d="M97.2,19.9H21.9c-3.8,0-6.6,2.9-6.6,6.6v22.2c0,1.3,0.9,2.2,2.2,2.2s2.2-0.9,2.2-2.2V26.6
					c0-1.3,0.9-2.2,2.2-2.2h75.3c1.3,0,2.2,0.9,2.2,2.2v53.2c0,1.3-0.9,2.2-2.2,2.2H44c-1.3,0-2.2,0.9-2.2,2.2
					c0,1.3,0.9,2.2,2.2,2.2h4.4V93c0,1.3-0.9,2.2-2.2,2.2H44c-1.3,0-2.2,0.9-2.2,2.2s0.9,2.2,2.2,2.2h31c1.3,0,2.2-0.9,2.2-2.2
					s-0.9-2.2-2.2-2.2h-2.2c-1.3,0-2.2-0.9-2.2-2.2v-6.6h26.6c3.8,0,6.6-2.9,6.6-6.6V26.6C103.8,22.8,101,19.9,97.2,19.9z
					 M52.4,95.2c0.2-0.7,0.4-1.3,0.4-2.2v-6.6h13.3V93c0,0.9,0.2,1.6,0.4,2.2H52.4z"/>
			</g>
		</g>
		<g>
			<g>
				<path class="st0" d="M92.8,68.7H44c-1.3,0-2.2,0.9-2.2,2.2s0.9,2.2,2.2,2.2h48.7c1.3,0,2.2-0.9,2.2-2.2S94.1,68.7,92.8,68.7z"/>
			</g>
		</g>
		<g>
			<g>
				<path class="st0" d="M30.7,55.4H13c-3.8,0-6.6,2.9-6.6,6.6v31c0,3.8,2.9,6.6,6.6,6.6h17.7c3.8,0,6.6-2.9,6.6-6.6V62
					C37.4,58.2,34.5,55.4,30.7,55.4z M32.9,93c0,1.3-0.9,2.2-2.2,2.2H13c-1.3,0-2.2-0.9-2.2-2.2V62c0-1.3,0.9-2.2,2.2-2.2h17.7
					c1.3,0,2.2,0.9,2.2,2.2V93z"/>
			</g>
		</g>
	</g>
</g>
</svg>
