<?xml version="1.0" encoding="utf-8"?>
<!-- Generator: Adobe Illustrator 25.4.2, SVG Export Plug-In . SVG Version: 6.00 Build 0)  -->
<svg version="1.1" id="Capa_1" xmlns="http://www.w3.org/2000/svg" xmlns:xlink="http://www.w3.org/1999/xlink" x="0px" y="0px"
	 viewBox="0 0 118 118" style="enable-background:new 0 0 118 118;" xml:space="preserve">
<style type="text/css">
	.st0{opacity:0.5;fill:#76E1D3;stroke:#76E1D3;stroke-width:3.6972;stroke-miterlimit:10;}
	.st1{fill:none;stroke:#000000;stroke-width:1.4671;stroke-miterlimit:10;}
</style>
<path class="st0" d="M101.4,29.5h-3.1v-11c0-5.9-4.7-10.7-10.4-10.7H23.7c-5.8,0-10.4,4.8-10.4,10.7v11h-2.9c-2.7,0-4.8,2.2-4.8,5
	v13.9c0,2.7,2.2,5,4.8,5h2.9v35.9c0,5.2,3.6,9.6,8.4,10.5v3.8c0,2.3,1.8,4.2,4.1,4.2h9c2.2,0,4.1-1.9,4.1-4.2V100H73v3.6
	c0,2.3,1.8,4.2,4.1,4.2h9c2.2,0,4.1-1.9,4.1-4.2v-3.8c4.7-1,8.2-5.3,8.2-10.5V53.4h3.1c2.7,0,4.8-2.2,4.8-5V34.5
	C106.3,31.7,104.1,29.5,101.4,29.5z M21.7,84.1c0-3.4,2.7-6.1,6-6.1c3.3,0,6,2.8,6,6.1c0,3.4-2.7,6.1-6,6.1
	C24.4,90.2,21.7,87.5,21.7,84.1z M84.1,90.2c-3.3,0-6-2.8-6-6.1c0-3.4,2.7-6.1,6-6.1s6,2.8,6,6.1C90.1,87.5,87.4,90.2,84.1,90.2z
	 M91.5,55.2c0,5.3-4.2,9.6-9.4,9.6h-53c-5.2,0-9.4-4.3-9.4-9.6c0-0.6,0-17.7,0-17.7c0-5.3,4.2-9.6,9.4-9.6h53c5.2,0,9.4,4.3,9.4,9.6
	V55.2z"/>
<g>
	<path class="st1" d="M95.5,105h-64c-5.8,0-10.6-4.7-10.6-10.6v-71c0-5.8,4.7-10.6,10.6-10.6h64c5.8,0,10.6,4.7,10.6,10.6v71
		C106.1,100.2,101.4,105,95.5,105z"/>
	<path class="st1" d="M105.7,61.8c0,6.3-5,11.4-11.1,11.4H32c-6.1,0-11.1-5.1-11.1-11.4"/>
	<path class="st1" d="M21,40.8c0-6.3,5-11.4,11.1-11.4h62.6c6.1,0,11.1,5.1,11.1,11.4"/>
	<line class="st1" x1="63.5" y1="29.7" x2="63.5" y2="73.2"/>
	<path class="st1" d="M21.1,58.4h-3.1c-2.7,0-4.8-2.2-4.8-5V39.5c0-2.7,2.2-5,4.8-5h2.5"/>
	<path class="st1" d="M106.1,58.4h3.1c2.7,0,4.8-2.2,4.8-5V39.5c0-2.7-2.2-5-4.8-5h-2.5"/>
	<line class="st1" x1="45.6" y1="21.5" x2="81.1" y2="21.5"/>
	<line class="st1" x1="54.4" y1="84.4" x2="74.1" y2="84.4"/>
	<line class="st1" x1="55.4" y1="93" x2="71.6" y2="93"/>
	<path class="st1" d="M46.5,105.5v4.3c0,2.3-1.8,4.2-4.1,4.2h-9c-2.2,0-4.1-1.9-4.1-4.2v-4.6"/>
	<path class="st1" d="M97.8,105.5v4.3c0,2.3-1.8,4.2-4.1,4.2h-9c-2.2,0-4.1-1.9-4.1-4.2v-4.6"/>
	<ellipse class="st1" cx="35.4" cy="89.1" rx="6" ry="6.1"/>
	<ellipse class="st1" cx="91.9" cy="89.1" rx="6" ry="6.1"/>
</g>
</svg>
