<?xml version="1.0" encoding="utf-8"?>
<!-- Generator: Adobe Illustrator 25.4.2, SVG Export Plug-In . SVG Version: 6.00 Build 0)  -->
<svg version="1.1" id="Capa_1" xmlns="http://www.w3.org/2000/svg" xmlns:xlink="http://www.w3.org/1999/xlink" x="0px" y="0px"
	 viewBox="0 0 118 118" style="enable-background:new 0 0 118 118;" xml:space="preserve">
<style type="text/css">
	.st0{opacity:0.5;fill:#76E1D3;}
	.st1{fill:none;stroke:#000000;stroke-width:1.5301;stroke-linecap:round;stroke-miterlimit:10;}
</style>
<path class="st0" d="M96.8,90.4L65.1,62.7l6.5-7.3c5.1,1.8,10.9,0.5,14.7-3.4l27.1-27.1l-3.9-3.8L90.2,40.5L86.7,37L106,17.6
	l-3.9-3.9L81.8,34l-3.5-3.5l20.3-20.3L93.3,5l-27,27c-3.9,3.9-5.1,9.6-3.4,14.8l-7.8,6.9l-7.3-6.7c6.7-14.5-5.9-24.8-5.9-24.8
	C23.2,5.7,10.7,13.2,9.4,14c-0.7,0.4-4.4,2.8-5.8,8.2C2,28.1,3.9,35.4,9.1,43.6c0.1,0.4,0.3,0.6,0.5,0.8
	C21.1,62,34.8,58.1,39.2,56.1l5.9,6.4L12,92l-0.2,0.2c-2.1,2.5-3,5.1-2.8,7.8c0.3,3.7,2.9,6.1,3.3,6.5c2,1.9,4.2,2.8,6.5,2.8
	c0.2,0,0.4,0,0.6,0c5.1-0.3,9-5.1,9.1-5.2L55.1,74l27.8,31.3c0.2,0.2,3.9,4.1,8.7,4.1c0.1,0,0.2,0,0.3,0c2.7-0.1,5.1-1.4,7.2-4
	C101.2,102.7,103.4,96,96.8,90.4z"/>
<g>
	<path class="st1" d="M98.6,14L72.9,39.7c-3.8,3.8-4.6,9.3-2.4,13.9L53.1,69.1l-8.2-9c0,0-15.5,9.5-28.6-10.5
		c-0.1-0.1-0.2-0.2-0.2-0.4C3.2,28.8,15.7,22,15.7,22s11.8-8.3,30.1,7.9c0,0,12.3,9.9,4.9,23.8l8.6,7.9"/>
	<path class="st1" d="M116,31.3L90.3,57c-3.8,3.8-9.3,4.6-13.9,2.4l-44,49.8c0,0-6.9,8.5-13.5,2.2c0,0-5.9-4.9-0.4-11.6l24.3-21.7"
		/>
	<line class="st1" x1="88.4" y1="46.7" x2="109.7" y2="25.4"/>
	<line class="st1" x1="83" y1="41.2" x2="104.2" y2="20"/>
	<path class="st1" d="M60.9,78l28.7,32.3c0,0,7.3,7.7,13.3,0.3c0,0,4.9-6.5-2.1-12.4L68.3,69.7"/>
</g>
</svg>
