<?xml version="1.0" encoding="utf-8"?>
<!-- Generator: Adobe Illustrator 24.0.1, SVG Export Plug-In . SVG Version: 6.00 Build 0)  -->
<svg version="1.1" id="Capa_1" xmlns="http://www.w3.org/2000/svg" xmlns:xlink="http://www.w3.org/1999/xlink" x="0px" y="0px"
	 viewBox="0 0 62.6 62.6" style="enable-background:new 0 0 62.6 62.6;" xml:space="preserve">
<style type="text/css">
	.st0{opacity:0.5;}
	.st1{fill:#84CAC6;}
	.st2{fill:none;stroke:#020203;stroke-width:0.7639;stroke-miterlimit:10;}
</style>
<g>
	<g class="st0">
		<path class="st1" d="M52.4,4.8C49.3,1.7,45.2,0,40.9,0H16.3C7.3,0,0,7.3,0,16.3v24.6c0,9,7.3,16.3,16.3,16.3h24.6
			c9,0,16.3-7.3,16.3-16.3V16.3C57.2,11.9,55.5,7.9,52.4,4.8z M50,40.9c0,5-4.1,9.2-9.2,9.2H16.3c0,0,0,0,0,0c-2.4,0-4.7-1-6.5-2.7
			c-1.7-1.7-2.7-4-2.7-6.5V16.3c0-5,4.1-9.2,9.2-9.2h24.6c5,0,9.2,4.1,9.2,9.2L50,40.9z"/>
		<path class="st1" d="M28.6,15.4c-7.2,0-13.1,5.9-13.1,13.1s5.9,13.1,13.1,13.1c7.2,0,13.1-5.9,13.1-13.1S35.8,15.4,28.6,15.4z
			 M35.2,28.6c0,3.7-3,6.6-6.6,6.6s-6.6-3-6.6-6.6s3-6.6,6.6-6.6S35.2,24.9,35.2,28.6z"/>
		<path class="st1" d="M43.3,10.6c-0.9,0-1.7,0.3-2.3,0.9c-0.6,0.6-0.9,1.4-0.9,2.3c0,0.8,0.3,1.7,0.9,2.3c0.6,0.6,1.4,0.9,2.3,0.9
			c0.8,0,1.7-0.3,2.3-0.9c0.6-0.6,0.9-1.4,0.9-2.3c0-0.9-0.3-1.7-0.9-2.3C45,11,44.2,10.6,43.3,10.6z"/>
	</g>
	<g>
		<path class="st2" d="M47.1,7.3H22.5c-8.4,0-15.2,6.8-15.2,15.2v24.6c0,8.4,6.8,15.2,15.2,15.2h24.6c8.4,0,15.2-6.8,15.2-15.2V22.5
			C62.2,14.1,55.4,7.3,47.1,7.3z M57.4,47.1c0,5.7-4.6,10.3-10.3,10.3H22.5c-5.7,0-10.3-4.6-10.3-10.3V22.5
			c0-5.7,4.6-10.3,10.3-10.3h24.6c5.7,0,10.3,4.6,10.3,10.3L57.4,47.1L57.4,47.1z"/>
		<path class="st2" d="M34.8,22.8c-6.6,0-12,5.4-12,12c0,6.6,5.4,12,12,12s12-5.4,12-12C46.7,28.2,41.4,22.8,34.8,22.8z M34.8,42.6
			c-4.3,0-7.8-3.5-7.8-7.8c0-4.3,3.5-7.8,7.8-7.8s7.8,3.5,7.8,7.8C42.6,39.1,39.1,42.6,34.8,42.6z"/>
		<path class="st2" d="M49.5,17.7c-0.6,0-1.2,0.2-1.6,0.7c-0.4,0.4-0.7,1-0.7,1.6c0,0.6,0.2,1.2,0.7,1.6c0.4,0.4,1,0.7,1.6,0.7
			c0.6,0,1.2-0.2,1.6-0.7c0.4-0.4,0.7-1,0.7-1.6c0-0.6-0.2-1.2-0.7-1.6C50.7,18,50.1,17.7,49.5,17.7z"/>
	</g>
</g>
</svg>
