<?xml version="1.0" encoding="utf-8"?>
<!-- Generator: Adobe Illustrator 24.0.1, SVG Export Plug-In . SVG Version: 6.00 Build 0)  -->
<svg version="1.1" id="Capa_1" xmlns="http://www.w3.org/2000/svg" xmlns:xlink="http://www.w3.org/1999/xlink" x="0px" y="0px"
	 viewBox="0 0 114.4 114.7" style="enable-background:new 0 0 114.4 114.7;" xml:space="preserve">
<style type="text/css">
	.st0{fill:none;stroke:#FFFFFF;stroke-width:5.2828;stroke-linecap:round;stroke-miterlimit:10;}
	.st1{fill:none;stroke:#FFFFFF;stroke-width:5.4071;stroke-linecap:round;stroke-miterlimit:10;}
</style>
<g>
	<g>
		<path class="st0" d="M110.5,87.9l-6.2-18.1c3-6.1,4.6-13,4.6-19.8c0-12-4.6-23.2-13-31.8C87.4,9.5,76.2,4.7,64.3,4.5
			C51.9,4.3,40.2,9,31.5,17.8C23,26.2,18.4,37.4,18.2,49.3C9.9,55.5,5,65.3,5,75.7c0,4.9,1.1,9.7,3.2,14.1l-4.3,12.5
			c-0.7,2.1-0.2,4.5,1.4,6.1c1.1,1.1,2.6,1.7,4.2,1.7c0.6,0,1.3-0.1,1.9-0.3l12.5-4.3c4.4,2.1,9.2,3.2,14.1,3.2c0,0,0,0,0.1,0
			c10.6,0,20.4-5,26.7-13.6c6.5-0.2,12.9-1.7,18.7-4.6l18.1,6.2c0.8,0.3,1.5,0.4,2.3,0.4c1.8,0,3.6-0.7,4.9-2.1
			C110.7,93.2,111.4,90.5,110.5,87.9z"/>
		<path class="st1" d="M64.3,95.4c-25.4,0-46-20.6-46-46"/>
		<line class="st0" x1="41" y1="35.7" x2="83.3" y2="35.7"/>
		<line class="st0" x1="41" y1="49.4" x2="83.3" y2="49.4"/>
		<line class="st0" x1="41" y1="63.1" x2="69.6" y2="63.1"/>
	</g>
</g>
</svg>
