<?xml version="1.0" encoding="utf-8"?>
<!-- Generator: Adobe Illustrator 24.0.1, SVG Export Plug-In . SVG Version: 6.00 Build 0)  -->
<svg version="1.1" id="Capa_1" xmlns="http://www.w3.org/2000/svg" xmlns:xlink="http://www.w3.org/1999/xlink" x="0px" y="0px"
	 viewBox="0 0 118 118" style="enable-background:new 0 0 118 118;" xml:space="preserve">
<style type="text/css">
	.st0{opacity:0.5;fill:#76E1D3;}
	.st1{fill:none;stroke:#000000;stroke-width:1.5;stroke-miterlimit:10;}
</style>
<g>
	<g>
		<path class="st0" d="M54.5,106.5c-28.7,0-52-23.3-52-52s23.3-52,52-52s52,23.3,52,52S83.2,106.5,54.5,106.5z M54.5,13
			C31.6,13,13,31.6,13,54.5s18.6,41.5,41.5,41.5s41.5-18.6,41.5-41.5S77.4,13,54.5,13z"/>
		<path class="st0" d="M49,76.1c-1.5,0-2.9-0.6-4-1.7L27,55.9c-2.2-2.2-2.1-5.7,0-7.8c2.2-2.2,5.7-2.1,7.8,0c0,0,0.1,0.1,0.1,0.1
			l13.9,14.3L74,34.8c2.1-2.2,5.6-2.4,7.8-0.3c2.2,2,2.4,5.5,0.4,7.7L53.1,74.3C52.1,75.4,50.6,76.1,49,76.1L49,76.1z"/>
	</g>
	<g>
		<path class="st1" d="M63.5,115.5c-28.7,0-52-23.3-52-52s23.3-52,52-52s52,23.3,52,52S92.1,115.5,63.5,115.5z M63.5,21.9
			c-22.9,0-41.5,18.6-41.5,41.5S40.6,105,63.5,105S105,86.4,105,63.5S86.4,21.9,63.5,21.9z"/>
		<path class="st1" d="M57.9,85.1c-1.5,0-2.9-0.6-4-1.7L36,64.8c-2.2-2.2-2.1-5.7,0-7.8c2.2-2.2,5.7-2.1,7.8,0c0,0,0.1,0.1,0.1,0.1
			l13.9,14.3l25.1-27.7c2.1-2.2,5.6-2.4,7.8-0.3c2.2,2,2.4,5.5,0.4,7.7L62,83.2C61,84.4,59.6,85,57.9,85.1L57.9,85.1z"/>
	</g>
</g>
</svg>
