<?xml version="1.0" encoding="utf-8"?>
<!-- Generator: Adobe Illustrator 24.0.1, SVG Export Plug-In . SVG Version: 6.00 Build 0)  -->
<svg version="1.1" id="Capa_1" xmlns="http://www.w3.org/2000/svg" xmlns:xlink="http://www.w3.org/1999/xlink" x="0px" y="0px"
	 viewBox="0 0 118 118" style="enable-background:new 0 0 118 118;" xml:space="preserve">
<style type="text/css">
	.st0{opacity:0.5;fill:#76E1D3;}
	.st1{fill:none;stroke:#000000;stroke-width:1.5;stroke-miterlimit:10;}
</style>
<g>
	<path class="st0" d="M85.4,47h-8.5V31.4c0-15.8-12.8-28.7-28.7-28.7h0c-15.8,0-28.7,12.8-28.7,28.7V47h-8.5c-4.2,0-7.7,3.4-7.7,7.7
		v46.6c0,4.2,3.4,7.7,7.7,7.7h74.4c4.2,0,7.7-3.4,7.7-7.7V54.7C93.1,50.5,89.7,47,85.4,47z M51.8,78.2c-0.7,0.5-1.1,1.3-0.9,2.2
		l2.1,10h-9.5l2.1-10c0.2-0.9-0.2-1.7-0.9-2.2c-2-1.2-3.1-3.4-3.1-5.6c0-3.7,3-6.7,6.7-6.7s6.7,3,6.7,6.7C55,74.9,53.8,77,51.8,78.2
		z M66.9,47c0.4,0-37.4,0-37.4,0V32c0-10.3,8.4-18.7,18.7-18.7h0c10.3,0,18.7,8.4,18.7,18.7V47z"/>
	<g>
		<g>
			<path class="st1" d="M107,54.3h-8.4V38.9c0-15.6-12.6-28.2-28.2-28.2h0c-15.6,0-28.2,12.6-28.2,28.2v15.4H34
				c-4.2,0-7.6,3.4-7.6,7.6v45.9c0,4.2,3.4,7.6,7.6,7.6H107c4.2,0,7.6-3.4,7.6-7.6V61.9C114.6,57.7,111.2,54.3,107,54.3z M52.1,54.3
				V39.5c0-10.2,8.2-18.4,18.4-18.4h0c10.2,0,18.4,8.2,18.4,18.4v14.8H52.1z"/>
			<path class="st1" d="M99.4,105.6H41.6c-3.1,0-5.5-2.5-5.5-5.5V69.1c0-3.1,2.5-5.5,5.5-5.5h57.8c3.1,0,5.5,2.5,5.5,5.5V100
				C105,103.1,102.5,105.6,99.4,105.6z"/>
			<path class="st1" d="M74,84.9c-0.7,0.5-1.1,1.3-0.9,2.2l2.1,9.8h-9.4l2.1-9.8c0.2-0.8-0.2-1.7-0.9-2.2c-1.9-1.2-3.1-3.3-3.1-5.6
				c0-3.6,3-6.6,6.6-6.6c3.6,0,6.6,3,6.6,6.6C77.1,81.6,75.9,83.7,74,84.9z"/>
		</g>
	</g>
</g>
</svg>
