<?xml version="1.0" encoding="utf-8"?>
<!-- Generator: Adobe Illustrator 24.0.1, SVG Export Plug-In . SVG Version: 6.00 Build 0)  -->
<svg version="1.1" id="Capa_1" xmlns="http://www.w3.org/2000/svg" xmlns:xlink="http://www.w3.org/1999/xlink" x="0px" y="0px"
	 viewBox="0 0 79.9 60.7" style="enable-background:new 0 0 79.9 60.7;" xml:space="preserve">
<style type="text/css">
	.st0{opacity:0.5;}
	.st1{fill:#84CAC6;}
	.st2{fill:none;stroke:#020203;stroke-width:0.8;stroke-miterlimit:10;}
</style>
<g>
	<g class="st0">
		<path class="st1" d="M62.6,0H9.1C4.1,0,0,4.1,0,9.1v34.4c0,5,4.1,9.1,9.1,9.1h53.5c5,0,9.1-4.1,9.1-9.1V9.1
			C71.6,4.1,67.6,0,62.6,0z M61.2,5.8L35.8,25.4L10.5,5.8H61.2z M62.6,46.6H9.1c-1.8,0-3.2-1.4-3.2-3.2V9.6L34,31.4
			c0.5,0.4,1.2,0.6,1.8,0.6c0.6,0,1.3-0.2,1.8-0.6L65.8,9.6v33.8C65.8,45.2,64.3,46.6,62.6,46.6z"/>
	</g>
	<g>
		<path class="st2" d="M70.4,7.8H16.9c-5,0-9.1,4.1-9.1,9.1v34.4c0,5,4.1,9.1,9.1,9.1h53.5c5,0,9.1-4.1,9.1-9.1V16.9
			C79.5,11.9,75.4,7.8,70.4,7.8z M69,13.7L43.6,33.2L18.3,13.7H69z M70.4,54.5H16.9c-1.8,0-3.2-1.4-3.2-3.2V17.5l28.2,21.8
			c0.5,0.4,1.2,0.6,1.8,0.6c0.6,0,1.3-0.2,1.8-0.6l28.2-21.8v33.8C73.6,53,72.2,54.5,70.4,54.5z"/>
	</g>
</g>
</svg>
