<?xml version="1.0" encoding="utf-8"?>
<!-- Generator: Adobe Illustrator 24.0.1, SVG Export Plug-In . SVG Version: 6.00 Build 0)  -->
<svg version="1.1" id="Capa_1" xmlns="http://www.w3.org/2000/svg" xmlns:xlink="http://www.w3.org/1999/xlink" x="0px" y="0px"
	 viewBox="0 0 33 33" style="enable-background:new 0 0 33 33;" xml:space="preserve">
<style type="text/css">
	.st0{fill:#76E1D3;}
	.st1{fill:#FFFFFF;}
</style>
<g>
	<circle class="st0" cx="16.5" cy="16.5" r="16.5"/>
	<g>
		<g>
			<path class="st1" d="M17.1,7.3c4.4,0,7.4,2.2,7.4,5.8c0,3.9-3.3,5.6-7.7,5.6l-0.1,2.2h-3.3l-0.2-4.3h1.1c3.7,0,6.6-0.6,6.6-3.5
				c0-1.9-1.4-3.1-3.8-3.1c-2.3,0-3.8,1.1-3.8,3H9.8C9.7,9.6,12.6,7.3,17.1,7.3z M15,27c-1.4,0-2.4-0.9-2.4-2c0-1.1,1.1-2,2.4-2
				c1.3,0,2.4,0.9,2.4,2C17.3,26.1,16.3,27,15,27z"/>
		</g>
	</g>
</g>
</svg>
